G04 #@! TF.GenerationSoftware,KiCad,Pcbnew,(6.0.11-0)*
G04 #@! TF.CreationDate,2023-05-27T14:14:42+01:00*
G04 #@! TF.ProjectId,SofleKeyboardBottomPlate,536f666c-654b-4657-9962-6f617264426f,rev?*
G04 #@! TF.SameCoordinates,Original*
G04 #@! TF.FileFunction,Copper,L1,Top*
G04 #@! TF.FilePolarity,Positive*
%FSLAX46Y46*%
G04 Gerber Fmt 4.6, Leading zero omitted, Abs format (unit mm)*
G04 Created by KiCad (PCBNEW (6.0.11-0)) date 2023-05-27 14:14:42*
%MOMM*%
%LPD*%
G01*
G04 APERTURE LIST*
G04 #@! TA.AperFunction,ComponentPad*
%ADD10C,4.700000*%
G04 #@! TD*
G04 APERTURE END LIST*
D10*
X206725000Y-62175000D03*
X130725000Y-57675000D03*
X206725000Y-100675000D03*
X130725000Y-98175000D03*
X103725000Y-119675000D03*
G04 #@! TA.AperFunction,NonConductor*
G36*
X171644889Y-36185040D02*
G01*
X182845363Y-37952230D01*
X225091667Y-44617774D01*
X225103280Y-44620171D01*
X225220781Y-44650253D01*
X225242034Y-44657776D01*
X225324081Y-44695385D01*
X225343329Y-44706350D01*
X225416701Y-44757181D01*
X225433497Y-44771116D01*
X225496921Y-44833770D01*
X225510996Y-44850304D01*
X225562740Y-44922943D01*
X225573807Y-44941733D01*
X225612288Y-45022287D01*
X225620047Y-45043054D01*
X225644070Y-45130045D01*
X225648101Y-45152206D01*
X225659166Y-45274229D01*
X225659681Y-45285608D01*
X225659453Y-59593022D01*
X225658202Y-138298321D01*
X225638199Y-138366441D01*
X225584542Y-138412933D01*
X225532202Y-138424319D01*
X213001281Y-138424320D01*
X206903895Y-138424320D01*
X206875781Y-138421144D01*
X188401937Y-134192558D01*
X188388822Y-134188037D01*
X188388787Y-134188151D01*
X188380205Y-134185527D01*
X188372080Y-134181713D01*
X188363217Y-134180333D01*
X188363206Y-134180330D01*
X188321686Y-134173867D01*
X188312962Y-134172192D01*
X188299767Y-134169172D01*
X188295308Y-134168802D01*
X188295301Y-134168801D01*
X188287362Y-134168143D01*
X188286601Y-134168080D01*
X188277643Y-134167012D01*
X188261493Y-134164498D01*
X188252783Y-134164498D01*
X188248659Y-134164499D01*
X188238245Y-134164068D01*
X188191367Y-134160179D01*
X188182572Y-134161978D01*
X188182198Y-134162000D01*
X188157484Y-134164503D01*
X138929736Y-134166498D01*
X138909853Y-134164919D01*
X138896316Y-134162756D01*
X138896315Y-134162756D01*
X138887447Y-134161339D01*
X138849654Y-134166128D01*
X138845883Y-134166501D01*
X138842594Y-134166501D01*
X138812087Y-134170872D01*
X138810094Y-134171141D01*
X138803667Y-134171955D01*
X138776417Y-134175408D01*
X138773242Y-134176323D01*
X138769619Y-134176955D01*
X138734921Y-134181926D01*
X138718175Y-134189541D01*
X138710691Y-134192944D01*
X138693418Y-134199321D01*
X94627098Y-146895212D01*
X94569675Y-146898105D01*
X94210327Y-146832769D01*
X94193022Y-146828335D01*
X93903714Y-146731898D01*
X93861559Y-146708030D01*
X93688549Y-146559736D01*
X93661359Y-146526947D01*
X83502398Y-128885044D01*
X83490902Y-128858373D01*
X83381114Y-128492413D01*
X83376235Y-128466671D01*
X83333935Y-127959072D01*
X83333500Y-127948608D01*
X83333500Y-127637826D01*
X83335947Y-127613115D01*
X83373610Y-127424800D01*
X83404985Y-127267924D01*
X83417648Y-127232807D01*
X83560648Y-126967765D01*
X86070454Y-122315968D01*
X87510351Y-119647194D01*
X101069801Y-119647194D01*
X101085691Y-119966382D01*
X101086332Y-119970113D01*
X101086333Y-119970121D01*
X101099261Y-120045354D01*
X101139812Y-120281350D01*
X101231381Y-120587535D01*
X101232894Y-120591006D01*
X101232896Y-120591012D01*
X101320261Y-120791459D01*
X101359070Y-120880501D01*
X101521031Y-121156006D01*
X101523332Y-121159021D01*
X101712617Y-121407044D01*
X101712622Y-121407049D01*
X101714917Y-121410057D01*
X101937920Y-121638976D01*
X102006408Y-121694140D01*
X102183856Y-121837068D01*
X102183861Y-121837072D01*
X102186809Y-121839446D01*
X102457979Y-122008563D01*
X102747502Y-122143877D01*
X102751112Y-122145060D01*
X102751116Y-122145062D01*
X102933863Y-122204970D01*
X103051185Y-122243430D01*
X103364628Y-122305777D01*
X103368400Y-122306064D01*
X103368408Y-122306065D01*
X103679515Y-122329730D01*
X103679520Y-122329730D01*
X103683292Y-122330017D01*
X104002559Y-122315799D01*
X104006297Y-122315177D01*
X104006305Y-122315176D01*
X104314072Y-122263949D01*
X104314080Y-122263947D01*
X104317806Y-122263327D01*
X104624466Y-122173363D01*
X104918097Y-122047209D01*
X104921375Y-122045305D01*
X104921381Y-122045302D01*
X105082126Y-121951933D01*
X105194445Y-121886693D01*
X105449509Y-121694140D01*
X105679592Y-121472339D01*
X105730298Y-121410057D01*
X105878965Y-121227447D01*
X105881362Y-121224503D01*
X106051897Y-120954222D01*
X106188725Y-120665411D01*
X106213547Y-120591012D01*
X106288669Y-120365841D01*
X106289866Y-120362254D01*
X106353854Y-120049141D01*
X106379763Y-119730609D01*
X106380345Y-119675000D01*
X106378898Y-119650986D01*
X106361341Y-119359773D01*
X106361341Y-119359769D01*
X106361113Y-119355995D01*
X106303697Y-119041611D01*
X106208927Y-118736402D01*
X106078176Y-118444789D01*
X105913339Y-118170996D01*
X105911012Y-118168012D01*
X105911007Y-118168005D01*
X105719140Y-117921984D01*
X105719138Y-117921981D01*
X105716804Y-117918989D01*
X105491416Y-117692418D01*
X105360725Y-117589390D01*
X105243419Y-117496913D01*
X105243412Y-117496908D01*
X105240441Y-117494566D01*
X104967515Y-117328297D01*
X104676591Y-117196022D01*
X104371882Y-117099655D01*
X104232342Y-117073415D01*
X104061527Y-117041293D01*
X104061522Y-117041292D01*
X104057803Y-117040593D01*
X103738903Y-117019691D01*
X103735124Y-117019899D01*
X103735122Y-117019899D01*
X103638214Y-117025232D01*
X103419802Y-117037253D01*
X103416075Y-117037914D01*
X103416071Y-117037914D01*
X103162324Y-117082884D01*
X103105122Y-117093022D01*
X103101497Y-117094127D01*
X103101492Y-117094128D01*
X102863656Y-117166616D01*
X102799421Y-117186193D01*
X102507127Y-117315415D01*
X102232475Y-117478816D01*
X102229474Y-117481132D01*
X102229470Y-117481134D01*
X101982445Y-117671712D01*
X101979442Y-117674029D01*
X101751694Y-117898227D01*
X101552530Y-118148163D01*
X101384835Y-118420215D01*
X101251038Y-118710443D01*
X101153078Y-119014643D01*
X101152359Y-119018359D01*
X101152357Y-119018367D01*
X101147860Y-119041611D01*
X101092372Y-119328408D01*
X101092105Y-119332184D01*
X101092104Y-119332189D01*
X101090151Y-119359773D01*
X101069801Y-119647194D01*
X87510351Y-119647194D01*
X89138639Y-116629247D01*
X89140822Y-116625739D01*
X89143573Y-116622849D01*
X89175260Y-116561417D01*
X89176351Y-116559349D01*
X89187727Y-116538264D01*
X89189857Y-116534317D01*
X89191091Y-116530963D01*
X89192534Y-116527975D01*
X89192645Y-116527712D01*
X89194878Y-116523383D01*
X89203898Y-116496323D01*
X89205181Y-116492664D01*
X89224312Y-116440664D01*
X89224313Y-116440662D01*
X89227413Y-116432234D01*
X89227851Y-116425800D01*
X89229848Y-116418473D01*
X89384463Y-115954629D01*
X89388539Y-115944021D01*
X89391023Y-115938337D01*
X89395746Y-115930706D01*
X89410965Y-115875660D01*
X89412872Y-115869403D01*
X89417535Y-115855414D01*
X89418952Y-115851162D01*
X89419752Y-115846752D01*
X89419755Y-115846741D01*
X89420258Y-115843970D01*
X89422787Y-115832901D01*
X89424270Y-115827535D01*
X89425570Y-115822835D01*
X89426132Y-115817984D01*
X89427712Y-115804345D01*
X89428899Y-115796345D01*
X89438373Y-115744137D01*
X89437432Y-115735204D01*
X89437766Y-115726238D01*
X89438152Y-115726252D01*
X89438216Y-115713606D01*
X89449728Y-115614182D01*
X89503835Y-115146853D01*
X89504497Y-115141970D01*
X89508010Y-115119407D01*
X89508758Y-115114605D01*
X89508758Y-115109740D01*
X89508810Y-115109068D01*
X89508881Y-115105868D01*
X89509067Y-115101666D01*
X89509582Y-115097213D01*
X89508803Y-115068346D01*
X89508757Y-115064949D01*
X89508445Y-98147194D01*
X128069801Y-98147194D01*
X128085691Y-98466382D01*
X128086332Y-98470113D01*
X128086333Y-98470121D01*
X128124531Y-98692418D01*
X128139812Y-98781350D01*
X128140900Y-98784989D01*
X128140901Y-98784992D01*
X128181871Y-98921984D01*
X128231381Y-99087535D01*
X128232894Y-99091006D01*
X128232896Y-99091012D01*
X128267757Y-99170996D01*
X128359070Y-99380501D01*
X128360993Y-99383773D01*
X128360995Y-99383776D01*
X128384443Y-99423662D01*
X128521031Y-99656006D01*
X128523332Y-99659021D01*
X128712617Y-99907044D01*
X128712622Y-99907049D01*
X128714917Y-99910057D01*
X128717561Y-99912771D01*
X128839554Y-100038000D01*
X128937920Y-100138976D01*
X129006408Y-100194140D01*
X129183856Y-100337068D01*
X129183861Y-100337072D01*
X129186809Y-100339446D01*
X129457979Y-100508563D01*
X129747502Y-100643877D01*
X129751112Y-100645060D01*
X129751116Y-100645062D01*
X129933863Y-100704970D01*
X130051185Y-100743430D01*
X130364628Y-100805777D01*
X130368400Y-100806064D01*
X130368408Y-100806065D01*
X130679515Y-100829730D01*
X130679520Y-100829730D01*
X130683292Y-100830017D01*
X131002559Y-100815799D01*
X131006297Y-100815177D01*
X131006305Y-100815176D01*
X131314072Y-100763949D01*
X131314080Y-100763947D01*
X131317806Y-100763327D01*
X131624466Y-100673363D01*
X131685376Y-100647194D01*
X204069801Y-100647194D01*
X204085691Y-100966382D01*
X204086332Y-100970113D01*
X204086333Y-100970121D01*
X204099261Y-101045354D01*
X204139812Y-101281350D01*
X204231381Y-101587535D01*
X204232894Y-101591006D01*
X204232896Y-101591012D01*
X204320261Y-101791459D01*
X204359070Y-101880501D01*
X204521031Y-102156006D01*
X204523332Y-102159021D01*
X204712617Y-102407044D01*
X204712622Y-102407049D01*
X204714917Y-102410057D01*
X204937920Y-102638976D01*
X205006408Y-102694140D01*
X205183856Y-102837068D01*
X205183861Y-102837072D01*
X205186809Y-102839446D01*
X205457979Y-103008563D01*
X205747502Y-103143877D01*
X205751112Y-103145060D01*
X205751116Y-103145062D01*
X205933863Y-103204970D01*
X206051185Y-103243430D01*
X206364628Y-103305777D01*
X206368400Y-103306064D01*
X206368408Y-103306065D01*
X206679515Y-103329730D01*
X206679520Y-103329730D01*
X206683292Y-103330017D01*
X207002559Y-103315799D01*
X207006297Y-103315177D01*
X207006305Y-103315176D01*
X207314072Y-103263949D01*
X207314080Y-103263947D01*
X207317806Y-103263327D01*
X207624466Y-103173363D01*
X207918097Y-103047209D01*
X207921375Y-103045305D01*
X207921381Y-103045302D01*
X208082126Y-102951933D01*
X208194445Y-102886693D01*
X208449509Y-102694140D01*
X208679592Y-102472339D01*
X208730298Y-102410057D01*
X208878965Y-102227447D01*
X208881362Y-102224503D01*
X209051897Y-101954222D01*
X209188725Y-101665411D01*
X209213547Y-101591012D01*
X209288669Y-101365841D01*
X209289866Y-101362254D01*
X209353854Y-101049141D01*
X209379763Y-100730609D01*
X209380345Y-100675000D01*
X209380157Y-100671869D01*
X209361341Y-100359773D01*
X209361341Y-100359769D01*
X209361113Y-100355995D01*
X209331971Y-100196425D01*
X209304377Y-100045333D01*
X209304376Y-100045329D01*
X209303697Y-100041611D01*
X209282188Y-99972339D01*
X209210049Y-99740017D01*
X209208927Y-99736402D01*
X209078176Y-99444789D01*
X208913339Y-99170996D01*
X208911012Y-99168012D01*
X208911007Y-99168005D01*
X208719140Y-98921984D01*
X208719138Y-98921981D01*
X208716804Y-98918989D01*
X208491416Y-98692418D01*
X208360725Y-98589390D01*
X208243419Y-98496913D01*
X208243412Y-98496908D01*
X208240441Y-98494566D01*
X207967515Y-98328297D01*
X207676591Y-98196022D01*
X207371882Y-98099655D01*
X207232342Y-98073415D01*
X207061527Y-98041293D01*
X207061522Y-98041292D01*
X207057803Y-98040593D01*
X206738903Y-98019691D01*
X206735124Y-98019899D01*
X206735122Y-98019899D01*
X206638214Y-98025232D01*
X206419802Y-98037253D01*
X206416075Y-98037914D01*
X206416071Y-98037914D01*
X206162324Y-98082884D01*
X206105122Y-98093022D01*
X206101497Y-98094127D01*
X206101492Y-98094128D01*
X205914938Y-98150986D01*
X205799421Y-98186193D01*
X205507127Y-98315415D01*
X205232475Y-98478816D01*
X205229474Y-98481132D01*
X205229470Y-98481134D01*
X204982445Y-98671712D01*
X204979442Y-98674029D01*
X204976744Y-98676685D01*
X204788237Y-98862254D01*
X204751694Y-98898227D01*
X204552530Y-99148163D01*
X204384835Y-99420215D01*
X204251038Y-99710443D01*
X204153078Y-100014643D01*
X204152359Y-100018359D01*
X204152357Y-100018367D01*
X204093091Y-100324690D01*
X204092372Y-100328408D01*
X204092105Y-100332184D01*
X204092104Y-100332189D01*
X204090151Y-100359773D01*
X204069801Y-100647194D01*
X131685376Y-100647194D01*
X131918097Y-100547209D01*
X131921375Y-100545305D01*
X131921381Y-100545302D01*
X132082126Y-100451933D01*
X132194445Y-100386693D01*
X132449509Y-100194140D01*
X132679592Y-99972339D01*
X132730298Y-99910057D01*
X132810706Y-99811291D01*
X132881362Y-99724503D01*
X133051897Y-99454222D01*
X133188725Y-99165411D01*
X133194480Y-99148163D01*
X133238914Y-99014976D01*
X133289866Y-98862254D01*
X133353854Y-98549141D01*
X133379763Y-98230609D01*
X133380228Y-98186193D01*
X133380322Y-98177221D01*
X133380322Y-98177214D01*
X133380345Y-98175000D01*
X133378898Y-98150986D01*
X133361341Y-97859773D01*
X133361341Y-97859769D01*
X133361113Y-97855995D01*
X133303697Y-97541611D01*
X133208927Y-97236402D01*
X133078176Y-96944789D01*
X132913339Y-96670996D01*
X132911012Y-96668012D01*
X132911007Y-96668005D01*
X132719140Y-96421984D01*
X132719138Y-96421981D01*
X132716804Y-96418989D01*
X132491416Y-96192418D01*
X132360725Y-96089390D01*
X132243419Y-95996913D01*
X132243412Y-95996908D01*
X132240441Y-95994566D01*
X131967515Y-95828297D01*
X131676591Y-95696022D01*
X131371882Y-95599655D01*
X131232342Y-95573415D01*
X131061527Y-95541293D01*
X131061522Y-95541292D01*
X131057803Y-95540593D01*
X130738903Y-95519691D01*
X130735124Y-95519899D01*
X130735122Y-95519899D01*
X130638214Y-95525232D01*
X130419802Y-95537253D01*
X130416075Y-95537914D01*
X130416071Y-95537914D01*
X130162324Y-95582884D01*
X130105122Y-95593022D01*
X130101497Y-95594127D01*
X130101492Y-95594128D01*
X129863656Y-95666616D01*
X129799421Y-95686193D01*
X129507127Y-95815415D01*
X129232475Y-95978816D01*
X129229474Y-95981132D01*
X129229470Y-95981134D01*
X128982445Y-96171712D01*
X128979442Y-96174029D01*
X128751694Y-96398227D01*
X128552530Y-96648163D01*
X128384835Y-96920215D01*
X128251038Y-97210443D01*
X128153078Y-97514643D01*
X128152359Y-97518359D01*
X128152357Y-97518367D01*
X128147860Y-97541611D01*
X128092372Y-97828408D01*
X128092105Y-97832184D01*
X128092104Y-97832189D01*
X128070069Y-98143405D01*
X128069801Y-98147194D01*
X89508445Y-98147194D01*
X89507821Y-64337068D01*
X89507781Y-62147194D01*
X204069801Y-62147194D01*
X204085691Y-62466382D01*
X204086332Y-62470113D01*
X204086333Y-62470121D01*
X204099261Y-62545354D01*
X204139812Y-62781350D01*
X204231381Y-63087535D01*
X204232894Y-63091006D01*
X204232896Y-63091012D01*
X204320261Y-63291459D01*
X204359070Y-63380501D01*
X204521031Y-63656006D01*
X204523332Y-63659021D01*
X204712617Y-63907044D01*
X204712622Y-63907049D01*
X204714917Y-63910057D01*
X204937920Y-64138976D01*
X205006408Y-64194140D01*
X205183856Y-64337068D01*
X205183861Y-64337072D01*
X205186809Y-64339446D01*
X205457979Y-64508563D01*
X205747502Y-64643877D01*
X205751112Y-64645060D01*
X205751116Y-64645062D01*
X205933863Y-64704970D01*
X206051185Y-64743430D01*
X206364628Y-64805777D01*
X206368400Y-64806064D01*
X206368408Y-64806065D01*
X206679515Y-64829730D01*
X206679520Y-64829730D01*
X206683292Y-64830017D01*
X207002559Y-64815799D01*
X207006297Y-64815177D01*
X207006305Y-64815176D01*
X207314072Y-64763949D01*
X207314080Y-64763947D01*
X207317806Y-64763327D01*
X207624466Y-64673363D01*
X207918097Y-64547209D01*
X207921375Y-64545305D01*
X207921381Y-64545302D01*
X208082126Y-64451933D01*
X208194445Y-64386693D01*
X208449509Y-64194140D01*
X208679592Y-63972339D01*
X208730298Y-63910057D01*
X208878965Y-63727447D01*
X208881362Y-63724503D01*
X209051897Y-63454222D01*
X209188725Y-63165411D01*
X209213547Y-63091012D01*
X209288669Y-62865841D01*
X209289866Y-62862254D01*
X209353854Y-62549141D01*
X209379763Y-62230609D01*
X209380345Y-62175000D01*
X209378898Y-62150986D01*
X209361341Y-61859773D01*
X209361341Y-61859769D01*
X209361113Y-61855995D01*
X209303697Y-61541611D01*
X209208927Y-61236402D01*
X209078176Y-60944789D01*
X208913339Y-60670996D01*
X208911012Y-60668012D01*
X208911007Y-60668005D01*
X208719140Y-60421984D01*
X208719138Y-60421981D01*
X208716804Y-60418989D01*
X208491416Y-60192418D01*
X208304800Y-60045302D01*
X208243419Y-59996913D01*
X208243412Y-59996908D01*
X208240441Y-59994566D01*
X207967515Y-59828297D01*
X207676591Y-59696022D01*
X207371882Y-59599655D01*
X207232342Y-59573415D01*
X207061527Y-59541293D01*
X207061522Y-59541292D01*
X207057803Y-59540593D01*
X206738903Y-59519691D01*
X206735124Y-59519899D01*
X206735122Y-59519899D01*
X206638214Y-59525232D01*
X206419802Y-59537253D01*
X206416075Y-59537914D01*
X206416071Y-59537914D01*
X206162324Y-59582884D01*
X206105122Y-59593022D01*
X206101497Y-59594127D01*
X206101492Y-59594128D01*
X205963271Y-59636255D01*
X205799421Y-59686193D01*
X205507127Y-59815415D01*
X205232475Y-59978816D01*
X205229474Y-59981132D01*
X205229470Y-59981134D01*
X204982445Y-60171712D01*
X204979442Y-60174029D01*
X204976744Y-60176685D01*
X204821276Y-60329730D01*
X204751694Y-60398227D01*
X204552530Y-60648163D01*
X204384835Y-60920215D01*
X204251038Y-61210443D01*
X204153078Y-61514643D01*
X204152359Y-61518359D01*
X204152357Y-61518367D01*
X204147860Y-61541611D01*
X204092372Y-61828408D01*
X204092105Y-61832184D01*
X204092104Y-61832189D01*
X204090151Y-61859773D01*
X204069801Y-62147194D01*
X89507781Y-62147194D01*
X89507698Y-57647194D01*
X128069801Y-57647194D01*
X128085691Y-57966382D01*
X128086332Y-57970113D01*
X128086333Y-57970121D01*
X128099261Y-58045354D01*
X128139812Y-58281350D01*
X128231381Y-58587535D01*
X128232894Y-58591006D01*
X128232896Y-58591012D01*
X128320261Y-58791459D01*
X128359070Y-58880501D01*
X128521031Y-59156006D01*
X128523332Y-59159021D01*
X128712617Y-59407044D01*
X128712622Y-59407049D01*
X128714917Y-59410057D01*
X128717561Y-59412771D01*
X128900732Y-59600801D01*
X128937920Y-59638976D01*
X129065464Y-59741707D01*
X129183856Y-59837068D01*
X129183861Y-59837072D01*
X129186809Y-59839446D01*
X129457979Y-60008563D01*
X129747502Y-60143877D01*
X129751112Y-60145060D01*
X129751116Y-60145062D01*
X129903768Y-60195104D01*
X130051185Y-60243430D01*
X130364628Y-60305777D01*
X130368400Y-60306064D01*
X130368408Y-60306065D01*
X130679515Y-60329730D01*
X130679520Y-60329730D01*
X130683292Y-60330017D01*
X131002559Y-60315799D01*
X131006297Y-60315177D01*
X131006305Y-60315176D01*
X131314072Y-60263949D01*
X131314080Y-60263947D01*
X131317806Y-60263327D01*
X131624466Y-60173363D01*
X131918097Y-60047209D01*
X131921375Y-60045305D01*
X131921381Y-60045302D01*
X132082126Y-59951933D01*
X132194445Y-59886693D01*
X132449509Y-59694140D01*
X132679592Y-59472339D01*
X132730298Y-59410057D01*
X132878965Y-59227447D01*
X132881362Y-59224503D01*
X133051897Y-58954222D01*
X133188725Y-58665411D01*
X133213547Y-58591012D01*
X133288669Y-58365841D01*
X133289866Y-58362254D01*
X133353854Y-58049141D01*
X133379763Y-57730609D01*
X133380345Y-57675000D01*
X133378898Y-57650986D01*
X133361341Y-57359773D01*
X133361341Y-57359769D01*
X133361113Y-57355995D01*
X133303697Y-57041611D01*
X133208927Y-56736402D01*
X133078176Y-56444789D01*
X132913339Y-56170996D01*
X132911012Y-56168012D01*
X132911007Y-56168005D01*
X132719140Y-55921984D01*
X132719138Y-55921981D01*
X132716804Y-55918989D01*
X132491416Y-55692418D01*
X132360725Y-55589390D01*
X132243419Y-55496913D01*
X132243412Y-55496908D01*
X132240441Y-55494566D01*
X131967515Y-55328297D01*
X131676591Y-55196022D01*
X131371882Y-55099655D01*
X131232342Y-55073415D01*
X131061527Y-55041293D01*
X131061522Y-55041292D01*
X131057803Y-55040593D01*
X130738903Y-55019691D01*
X130735124Y-55019899D01*
X130735122Y-55019899D01*
X130638214Y-55025232D01*
X130419802Y-55037253D01*
X130416075Y-55037914D01*
X130416071Y-55037914D01*
X130162324Y-55082884D01*
X130105122Y-55093022D01*
X130101497Y-55094127D01*
X130101492Y-55094128D01*
X129863656Y-55166616D01*
X129799421Y-55186193D01*
X129507127Y-55315415D01*
X129232475Y-55478816D01*
X129229474Y-55481132D01*
X129229470Y-55481134D01*
X128982445Y-55671712D01*
X128979442Y-55674029D01*
X128751694Y-55898227D01*
X128552530Y-56148163D01*
X128384835Y-56420215D01*
X128251038Y-56710443D01*
X128153078Y-57014643D01*
X128152359Y-57018359D01*
X128152357Y-57018367D01*
X128147860Y-57041611D01*
X128092372Y-57328408D01*
X128092105Y-57332184D01*
X128092104Y-57332189D01*
X128090151Y-57359773D01*
X128069801Y-57647194D01*
X89507698Y-57647194D01*
X89507357Y-39184324D01*
X89507992Y-39171689D01*
X89511411Y-39137772D01*
X89521793Y-39034760D01*
X89526821Y-39010045D01*
X89534889Y-38984050D01*
X89556500Y-38914423D01*
X89566096Y-38891670D01*
X89613271Y-38804755D01*
X89626821Y-38784673D01*
X89689789Y-38708354D01*
X89706790Y-38691353D01*
X89783102Y-38628389D01*
X89803184Y-38614839D01*
X89890110Y-38567657D01*
X89912859Y-38558061D01*
X89927724Y-38553446D01*
X90008487Y-38528374D01*
X90033198Y-38523346D01*
X90182462Y-38508297D01*
X90190181Y-38507757D01*
X149732462Y-36183596D01*
X149737378Y-36183500D01*
X171625253Y-36183500D01*
X171644889Y-36185040D01*
G37*
G04 #@! TD.AperFunction*
M02*
