%TF.GenerationSoftware,KiCad,Pcbnew,(6.0.11-0)*%
%TF.CreationDate,2023-05-27T14:14:39+01:00*%
%TF.ProjectId,SofleKeyboardBottomPlate,536f666c-654b-4657-9962-6f617264426f,rev?*%
%TF.SameCoordinates,Original*%
%TF.FileFunction,Drillmap*%
%TF.FilePolarity,Positive*%
%FSLAX45Y45*%
G04 Gerber Fmt 4.5, Leading zero omitted, Abs format (unit mm)*
G04 Created by KiCad (PCBNEW (6.0.11-0)) date 2023-05-27 14:14:39*
%MOMM*%
%LPD*%
G01*
G04 APERTURE LIST*
%ADD10C,0.100000*%
%ADD11C,0.200000*%
%ADD12C,0.220000*%
G04 APERTURE END LIST*
D10*
X22600888Y-4467281D02*
X22609528Y-4485367D01*
X9327500Y-14687500D02*
X8302500Y-12907500D01*
X17167500Y-3567500D02*
X22520044Y-4412015D01*
X8900026Y-11507500D02*
X8892500Y-11572500D01*
X9407500Y-14732500D02*
X9462500Y-14742500D01*
X8287500Y-12857500D02*
X8282500Y-12797500D01*
X9362500Y-14717500D02*
X9407500Y-14732500D01*
X22540211Y-4417178D02*
X22558687Y-4425647D01*
X8902226Y-3892026D02*
X8908938Y-3870401D01*
X8899886Y-3915243D02*
X8902226Y-3892026D01*
X8892500Y-11572500D02*
X8872500Y-11632500D01*
X8282500Y-12797500D02*
X8282500Y-12757500D01*
X9327500Y-14687500D02*
X9362500Y-14717500D01*
X22520044Y-4412015D02*
X22540211Y-4417178D01*
X22614938Y-4504957D02*
X22616818Y-4525690D01*
X8292500Y-12707500D02*
X8872500Y-11632500D01*
X8908938Y-3870401D02*
X8919559Y-3850833D01*
X8950675Y-3819716D02*
X8970244Y-3809094D01*
X22609528Y-4485367D02*
X22614938Y-4504957D01*
X14972500Y-3567500D02*
X9015085Y-3800040D01*
X8302500Y-12907500D02*
X8287500Y-12857500D01*
X8919559Y-3850833D02*
X8933626Y-3833783D01*
X8282500Y-12757500D02*
X8292500Y-12707500D01*
X8933626Y-3833783D02*
X8950675Y-3819716D01*
X13887913Y-13467500D02*
X9462500Y-14742500D01*
X8991868Y-3802381D02*
X9015085Y-3800040D01*
X22575162Y-4437060D02*
X22589332Y-4451058D01*
X8970244Y-3809094D02*
X8991868Y-3802381D01*
X14972500Y-3567500D02*
X17167500Y-3567500D01*
X22589332Y-4451058D02*
X22600888Y-4467281D01*
X8900026Y-11507500D02*
X8899886Y-3915243D01*
X22558687Y-4425647D02*
X22575162Y-4437060D01*
X13887913Y-13467500D02*
X18822190Y-13467300D01*
X20683220Y-13893282D02*
X18822190Y-13467300D01*
X22616818Y-4525690D02*
X22616670Y-13836397D01*
X22559264Y-13893288D02*
G75*
G03*
X22616670Y-13836397I506J56898D01*
G01*
X22559264Y-13893282D02*
X20683220Y-13893282D01*
D11*
D12*
X10262500Y-11857500D02*
X10482500Y-12077500D01*
X10482500Y-11857500D02*
X10262500Y-12077500D01*
X12962500Y-5657500D02*
X13182500Y-5877500D01*
X13182500Y-5657500D02*
X12962500Y-5877500D01*
X12962500Y-9707500D02*
X13182500Y-9927500D01*
X13182500Y-9707500D02*
X12962500Y-9927500D01*
X20562500Y-6107500D02*
X20782500Y-6327500D01*
X20782500Y-6107500D02*
X20562500Y-6327500D01*
X20562500Y-9957500D02*
X20782500Y-10177500D01*
X20782500Y-9957500D02*
X20562500Y-10177500D01*
D11*
X8535119Y-15057976D02*
X8535119Y-14857976D01*
X8582738Y-14857976D01*
X8611310Y-14867500D01*
X8630357Y-14886548D01*
X8639881Y-14905595D01*
X8649405Y-14943690D01*
X8649405Y-14972262D01*
X8639881Y-15010357D01*
X8630357Y-15029405D01*
X8611310Y-15048452D01*
X8582738Y-15057976D01*
X8535119Y-15057976D01*
X8735119Y-15057976D02*
X8735119Y-14924643D01*
X8735119Y-14962738D02*
X8744643Y-14943690D01*
X8754167Y-14934167D01*
X8773214Y-14924643D01*
X8792262Y-14924643D01*
X8858929Y-15057976D02*
X8858929Y-14924643D01*
X8858929Y-14857976D02*
X8849405Y-14867500D01*
X8858929Y-14877024D01*
X8868452Y-14867500D01*
X8858929Y-14857976D01*
X8858929Y-14877024D01*
X8982738Y-15057976D02*
X8963690Y-15048452D01*
X8954167Y-15029405D01*
X8954167Y-14857976D01*
X9087500Y-15057976D02*
X9068452Y-15048452D01*
X9058929Y-15029405D01*
X9058929Y-14857976D01*
X9316071Y-15057976D02*
X9316071Y-14857976D01*
X9382738Y-15000833D01*
X9449405Y-14857976D01*
X9449405Y-15057976D01*
X9630357Y-15057976D02*
X9630357Y-14953214D01*
X9620833Y-14934167D01*
X9601786Y-14924643D01*
X9563690Y-14924643D01*
X9544643Y-14934167D01*
X9630357Y-15048452D02*
X9611310Y-15057976D01*
X9563690Y-15057976D01*
X9544643Y-15048452D01*
X9535119Y-15029405D01*
X9535119Y-15010357D01*
X9544643Y-14991309D01*
X9563690Y-14981786D01*
X9611310Y-14981786D01*
X9630357Y-14972262D01*
X9725595Y-14924643D02*
X9725595Y-15124643D01*
X9725595Y-14934167D02*
X9744643Y-14924643D01*
X9782738Y-14924643D01*
X9801786Y-14934167D01*
X9811310Y-14943690D01*
X9820833Y-14962738D01*
X9820833Y-15019881D01*
X9811310Y-15038928D01*
X9801786Y-15048452D01*
X9782738Y-15057976D01*
X9744643Y-15057976D01*
X9725595Y-15048452D01*
X9906548Y-15038928D02*
X9916071Y-15048452D01*
X9906548Y-15057976D01*
X9897024Y-15048452D01*
X9906548Y-15038928D01*
X9906548Y-15057976D01*
X9906548Y-14934167D02*
X9916071Y-14943690D01*
X9906548Y-14953214D01*
X9897024Y-14943690D01*
X9906548Y-14934167D01*
X9906548Y-14953214D01*
X8077500Y-15287500D02*
X8277500Y-15487500D01*
X8277500Y-15287500D02*
X8077500Y-15487500D01*
X8525595Y-15297024D02*
X8535119Y-15287500D01*
X8554167Y-15277976D01*
X8601786Y-15277976D01*
X8620833Y-15287500D01*
X8630357Y-15297024D01*
X8639881Y-15316071D01*
X8639881Y-15335119D01*
X8630357Y-15363690D01*
X8516071Y-15477976D01*
X8639881Y-15477976D01*
X8725595Y-15458928D02*
X8735119Y-15468452D01*
X8725595Y-15477976D01*
X8716071Y-15468452D01*
X8725595Y-15458928D01*
X8725595Y-15477976D01*
X8811310Y-15297024D02*
X8820833Y-15287500D01*
X8839881Y-15277976D01*
X8887500Y-15277976D01*
X8906548Y-15287500D01*
X8916071Y-15297024D01*
X8925595Y-15316071D01*
X8925595Y-15335119D01*
X8916071Y-15363690D01*
X8801786Y-15477976D01*
X8925595Y-15477976D01*
X9049405Y-15277976D02*
X9068452Y-15277976D01*
X9087500Y-15287500D01*
X9097024Y-15297024D01*
X9106548Y-15316071D01*
X9116071Y-15354167D01*
X9116071Y-15401786D01*
X9106548Y-15439881D01*
X9097024Y-15458928D01*
X9087500Y-15468452D01*
X9068452Y-15477976D01*
X9049405Y-15477976D01*
X9030357Y-15468452D01*
X9020833Y-15458928D01*
X9011310Y-15439881D01*
X9001786Y-15401786D01*
X9001786Y-15354167D01*
X9011310Y-15316071D01*
X9020833Y-15297024D01*
X9030357Y-15287500D01*
X9049405Y-15277976D01*
X9239881Y-15277976D02*
X9258929Y-15277976D01*
X9277976Y-15287500D01*
X9287500Y-15297024D01*
X9297024Y-15316071D01*
X9306548Y-15354167D01*
X9306548Y-15401786D01*
X9297024Y-15439881D01*
X9287500Y-15458928D01*
X9277976Y-15468452D01*
X9258929Y-15477976D01*
X9239881Y-15477976D01*
X9220833Y-15468452D01*
X9211310Y-15458928D01*
X9201786Y-15439881D01*
X9192262Y-15401786D01*
X9192262Y-15354167D01*
X9201786Y-15316071D01*
X9211310Y-15297024D01*
X9220833Y-15287500D01*
X9239881Y-15277976D01*
X9392262Y-15477976D02*
X9392262Y-15344643D01*
X9392262Y-15363690D02*
X9401786Y-15354167D01*
X9420833Y-15344643D01*
X9449405Y-15344643D01*
X9468452Y-15354167D01*
X9477976Y-15373214D01*
X9477976Y-15477976D01*
X9477976Y-15373214D02*
X9487500Y-15354167D01*
X9506548Y-15344643D01*
X9535119Y-15344643D01*
X9554167Y-15354167D01*
X9563690Y-15373214D01*
X9563690Y-15477976D01*
X9658929Y-15477976D02*
X9658929Y-15344643D01*
X9658929Y-15363690D02*
X9668452Y-15354167D01*
X9687500Y-15344643D01*
X9716071Y-15344643D01*
X9735119Y-15354167D01*
X9744643Y-15373214D01*
X9744643Y-15477976D01*
X9744643Y-15373214D02*
X9754167Y-15354167D01*
X9773214Y-15344643D01*
X9801786Y-15344643D01*
X9820833Y-15354167D01*
X9830357Y-15373214D01*
X9830357Y-15477976D01*
X10220833Y-15268452D02*
X10049405Y-15525595D01*
X10477976Y-15277976D02*
X10497024Y-15277976D01*
X10516071Y-15287500D01*
X10525595Y-15297024D01*
X10535119Y-15316071D01*
X10544643Y-15354167D01*
X10544643Y-15401786D01*
X10535119Y-15439881D01*
X10525595Y-15458928D01*
X10516071Y-15468452D01*
X10497024Y-15477976D01*
X10477976Y-15477976D01*
X10458929Y-15468452D01*
X10449405Y-15458928D01*
X10439881Y-15439881D01*
X10430357Y-15401786D01*
X10430357Y-15354167D01*
X10439881Y-15316071D01*
X10449405Y-15297024D01*
X10458929Y-15287500D01*
X10477976Y-15277976D01*
X10630357Y-15458928D02*
X10639881Y-15468452D01*
X10630357Y-15477976D01*
X10620833Y-15468452D01*
X10630357Y-15458928D01*
X10630357Y-15477976D01*
X10763690Y-15277976D02*
X10782738Y-15277976D01*
X10801786Y-15287500D01*
X10811310Y-15297024D01*
X10820833Y-15316071D01*
X10830357Y-15354167D01*
X10830357Y-15401786D01*
X10820833Y-15439881D01*
X10811310Y-15458928D01*
X10801786Y-15468452D01*
X10782738Y-15477976D01*
X10763690Y-15477976D01*
X10744643Y-15468452D01*
X10735119Y-15458928D01*
X10725595Y-15439881D01*
X10716071Y-15401786D01*
X10716071Y-15354167D01*
X10725595Y-15316071D01*
X10735119Y-15297024D01*
X10744643Y-15287500D01*
X10763690Y-15277976D01*
X10944643Y-15363690D02*
X10925595Y-15354167D01*
X10916071Y-15344643D01*
X10906548Y-15325595D01*
X10906548Y-15316071D01*
X10916071Y-15297024D01*
X10925595Y-15287500D01*
X10944643Y-15277976D01*
X10982738Y-15277976D01*
X11001786Y-15287500D01*
X11011310Y-15297024D01*
X11020833Y-15316071D01*
X11020833Y-15325595D01*
X11011310Y-15344643D01*
X11001786Y-15354167D01*
X10982738Y-15363690D01*
X10944643Y-15363690D01*
X10925595Y-15373214D01*
X10916071Y-15382738D01*
X10906548Y-15401786D01*
X10906548Y-15439881D01*
X10916071Y-15458928D01*
X10925595Y-15468452D01*
X10944643Y-15477976D01*
X10982738Y-15477976D01*
X11001786Y-15468452D01*
X11011310Y-15458928D01*
X11020833Y-15439881D01*
X11020833Y-15401786D01*
X11011310Y-15382738D01*
X11001786Y-15373214D01*
X10982738Y-15363690D01*
X11192262Y-15277976D02*
X11154167Y-15277976D01*
X11135119Y-15287500D01*
X11125595Y-15297024D01*
X11106548Y-15325595D01*
X11097024Y-15363690D01*
X11097024Y-15439881D01*
X11106548Y-15458928D01*
X11116071Y-15468452D01*
X11135119Y-15477976D01*
X11173214Y-15477976D01*
X11192262Y-15468452D01*
X11201786Y-15458928D01*
X11211309Y-15439881D01*
X11211309Y-15392262D01*
X11201786Y-15373214D01*
X11192262Y-15363690D01*
X11173214Y-15354167D01*
X11135119Y-15354167D01*
X11116071Y-15363690D01*
X11106548Y-15373214D01*
X11097024Y-15392262D01*
X11382738Y-15277976D02*
X11344643Y-15277976D01*
X11325595Y-15287500D01*
X11316071Y-15297024D01*
X11297024Y-15325595D01*
X11287500Y-15363690D01*
X11287500Y-15439881D01*
X11297024Y-15458928D01*
X11306548Y-15468452D01*
X11325595Y-15477976D01*
X11363690Y-15477976D01*
X11382738Y-15468452D01*
X11392262Y-15458928D01*
X11401786Y-15439881D01*
X11401786Y-15392262D01*
X11392262Y-15373214D01*
X11382738Y-15363690D01*
X11363690Y-15354167D01*
X11325595Y-15354167D01*
X11306548Y-15363690D01*
X11297024Y-15373214D01*
X11287500Y-15392262D01*
X11477976Y-15277976D02*
X11477976Y-15316071D01*
X11554167Y-15277976D02*
X11554167Y-15316071D01*
X11849405Y-15554167D02*
X11839881Y-15544643D01*
X11820833Y-15516071D01*
X11811309Y-15497024D01*
X11801786Y-15468452D01*
X11792262Y-15420833D01*
X11792262Y-15382738D01*
X11801786Y-15335119D01*
X11811309Y-15306548D01*
X11820833Y-15287500D01*
X11839881Y-15258928D01*
X11849405Y-15249405D01*
X12020833Y-15277976D02*
X11925595Y-15277976D01*
X11916071Y-15373214D01*
X11925595Y-15363690D01*
X11944643Y-15354167D01*
X11992262Y-15354167D01*
X12011309Y-15363690D01*
X12020833Y-15373214D01*
X12030357Y-15392262D01*
X12030357Y-15439881D01*
X12020833Y-15458928D01*
X12011309Y-15468452D01*
X11992262Y-15477976D01*
X11944643Y-15477976D01*
X11925595Y-15468452D01*
X11916071Y-15458928D01*
X12268452Y-15477976D02*
X12268452Y-15277976D01*
X12354167Y-15477976D02*
X12354167Y-15373214D01*
X12344643Y-15354167D01*
X12325595Y-15344643D01*
X12297024Y-15344643D01*
X12277976Y-15354167D01*
X12268452Y-15363690D01*
X12477976Y-15477976D02*
X12458928Y-15468452D01*
X12449405Y-15458928D01*
X12439881Y-15439881D01*
X12439881Y-15382738D01*
X12449405Y-15363690D01*
X12458928Y-15354167D01*
X12477976Y-15344643D01*
X12506548Y-15344643D01*
X12525595Y-15354167D01*
X12535119Y-15363690D01*
X12544643Y-15382738D01*
X12544643Y-15439881D01*
X12535119Y-15458928D01*
X12525595Y-15468452D01*
X12506548Y-15477976D01*
X12477976Y-15477976D01*
X12658928Y-15477976D02*
X12639881Y-15468452D01*
X12630357Y-15449405D01*
X12630357Y-15277976D01*
X12811309Y-15468452D02*
X12792262Y-15477976D01*
X12754167Y-15477976D01*
X12735119Y-15468452D01*
X12725595Y-15449405D01*
X12725595Y-15373214D01*
X12735119Y-15354167D01*
X12754167Y-15344643D01*
X12792262Y-15344643D01*
X12811309Y-15354167D01*
X12820833Y-15373214D01*
X12820833Y-15392262D01*
X12725595Y-15411309D01*
X12897024Y-15468452D02*
X12916071Y-15477976D01*
X12954167Y-15477976D01*
X12973214Y-15468452D01*
X12982738Y-15449405D01*
X12982738Y-15439881D01*
X12973214Y-15420833D01*
X12954167Y-15411309D01*
X12925595Y-15411309D01*
X12906548Y-15401786D01*
X12897024Y-15382738D01*
X12897024Y-15373214D01*
X12906548Y-15354167D01*
X12925595Y-15344643D01*
X12954167Y-15344643D01*
X12973214Y-15354167D01*
X13049405Y-15554167D02*
X13058928Y-15544643D01*
X13077976Y-15516071D01*
X13087500Y-15497024D01*
X13097024Y-15468452D01*
X13106548Y-15420833D01*
X13106548Y-15382738D01*
X13097024Y-15335119D01*
X13087500Y-15306548D01*
X13077976Y-15287500D01*
X13058928Y-15258928D01*
X13049405Y-15249405D01*
M02*
