G04 #@! TF.GenerationSoftware,KiCad,Pcbnew,(6.0.11-0)*
G04 #@! TF.CreationDate,2023-05-27T14:14:42+01:00*
G04 #@! TF.ProjectId,SofleKeyboardBottomPlate,536f666c-654b-4657-9962-6f617264426f,rev?*
G04 #@! TF.SameCoordinates,Original*
G04 #@! TF.FileFunction,Profile,NP*
%FSLAX46Y46*%
G04 Gerber Fmt 4.6, Leading zero omitted, Abs format (unit mm)*
G04 Created by KiCad (PCBNEW (6.0.11-0)) date 2023-05-27 14:14:42*
%MOMM*%
%LPD*%
G01*
G04 APERTURE LIST*
G04 #@! TA.AperFunction,Profile*
%ADD10C,0.100000*%
G04 #@! TD*
G04 APERTURE END LIST*
D10*
X226008881Y-44672807D02*
X226095281Y-44853672D01*
X93275000Y-146875000D02*
X83025000Y-129075000D01*
X171675000Y-35675000D02*
X225200441Y-44120146D01*
X89000257Y-115075000D02*
X88925000Y-115725000D01*
X94075000Y-147325000D02*
X94625000Y-147425000D01*
X82875000Y-128575000D02*
X82825000Y-127975000D01*
X93625000Y-147175000D02*
X94075000Y-147325000D01*
X225402111Y-44171776D02*
X225586871Y-44256466D01*
X89022257Y-38920261D02*
X89089377Y-38704014D01*
X88998857Y-39152435D02*
X89022257Y-38920261D01*
X88925000Y-115725000D02*
X88725000Y-116325000D01*
X82825000Y-127975000D02*
X82825000Y-127575000D01*
X93275000Y-146875000D02*
X93625000Y-147175000D01*
X225200441Y-44120146D02*
X225402111Y-44171776D01*
X226149381Y-45049571D02*
X226168181Y-45256902D01*
X82925000Y-127075000D02*
X88725000Y-116325000D01*
X89089377Y-38704014D02*
X89195590Y-38508327D01*
X89506752Y-38197160D02*
X89702436Y-38090945D01*
X226095281Y-44853672D02*
X226149381Y-45049571D01*
X149725000Y-35675000D02*
X90150853Y-38000405D01*
X83025000Y-129075000D02*
X82875000Y-128575000D01*
X89195590Y-38508327D02*
X89336259Y-38337831D01*
X82825000Y-127575000D02*
X82925000Y-127075000D01*
X89336259Y-38337831D02*
X89506752Y-38197160D01*
X138879128Y-134675000D02*
X94625000Y-147425000D01*
X89918680Y-38023815D02*
X90150853Y-38000405D01*
X225751621Y-44370600D02*
X225893321Y-44510582D01*
X89702436Y-38090945D02*
X89918680Y-38023815D01*
X149725000Y-35675000D02*
X171675000Y-35675000D01*
X225893321Y-44510582D02*
X226008881Y-44672807D01*
X89000257Y-115075000D02*
X88998857Y-39152435D01*
X225586871Y-44256466D02*
X225751621Y-44370600D01*
X138879128Y-134675000D02*
X188221900Y-134673000D01*
X206832200Y-138932820D02*
X188221900Y-134673000D01*
X226168181Y-45256902D02*
X226166702Y-138363974D01*
X225592640Y-138932880D02*
G75*
G03*
X226166702Y-138363974I5060J568980D01*
G01*
X225592641Y-138932819D02*
X206832200Y-138932820D01*
M02*
