G04 #@! TF.GenerationSoftware,KiCad,Pcbnew,(6.0.11-0)*
G04 #@! TF.CreationDate,2023-05-27T14:14:42+01:00*
G04 #@! TF.ProjectId,SofleKeyboardBottomPlate,536f666c-654b-4657-9962-6f617264426f,rev?*
G04 #@! TF.SameCoordinates,Original*
G04 #@! TF.FileFunction,Legend,Bot*
G04 #@! TF.FilePolarity,Positive*
%FSLAX46Y46*%
G04 Gerber Fmt 4.6, Leading zero omitted, Abs format (unit mm)*
G04 Created by KiCad (PCBNEW (6.0.11-0)) date 2023-05-27 14:14:42*
%MOMM*%
%LPD*%
G01*
G04 APERTURE LIST*
%ADD10C,0.150000*%
%ADD11C,0.200000*%
%ADD12C,0.010000*%
%ADD13C,5.100000*%
G04 APERTURE END LIST*
D10*
X139069285Y-47367380D02*
X139069285Y-46367380D01*
X138640714Y-47367380D02*
X138640714Y-46843571D01*
X138688333Y-46748333D01*
X138783571Y-46700714D01*
X138926428Y-46700714D01*
X139021666Y-46748333D01*
X139069285Y-46795952D01*
X138307380Y-46700714D02*
X137926428Y-46700714D01*
X138164523Y-46367380D02*
X138164523Y-47224523D01*
X138116904Y-47319761D01*
X138021666Y-47367380D01*
X137926428Y-47367380D01*
X137735952Y-46700714D02*
X137355000Y-46700714D01*
X137593095Y-46367380D02*
X137593095Y-47224523D01*
X137545476Y-47319761D01*
X137450238Y-47367380D01*
X137355000Y-47367380D01*
X137021666Y-46700714D02*
X137021666Y-47700714D01*
X137021666Y-46748333D02*
X136926428Y-46700714D01*
X136735952Y-46700714D01*
X136640714Y-46748333D01*
X136593095Y-46795952D01*
X136545476Y-46891190D01*
X136545476Y-47176904D01*
X136593095Y-47272142D01*
X136640714Y-47319761D01*
X136735952Y-47367380D01*
X136926428Y-47367380D01*
X137021666Y-47319761D01*
X136164523Y-47319761D02*
X136069285Y-47367380D01*
X135878809Y-47367380D01*
X135783571Y-47319761D01*
X135735952Y-47224523D01*
X135735952Y-47176904D01*
X135783571Y-47081666D01*
X135878809Y-47034047D01*
X136021666Y-47034047D01*
X136116904Y-46986428D01*
X136164523Y-46891190D01*
X136164523Y-46843571D01*
X136116904Y-46748333D01*
X136021666Y-46700714D01*
X135878809Y-46700714D01*
X135783571Y-46748333D01*
X135307380Y-47272142D02*
X135259761Y-47319761D01*
X135307380Y-47367380D01*
X135355000Y-47319761D01*
X135307380Y-47272142D01*
X135307380Y-47367380D01*
X135307380Y-46748333D02*
X135259761Y-46795952D01*
X135307380Y-46843571D01*
X135355000Y-46795952D01*
X135307380Y-46748333D01*
X135307380Y-46843571D01*
X134116904Y-46319761D02*
X134974047Y-47605476D01*
X133069285Y-46319761D02*
X133926428Y-47605476D01*
X132735952Y-46700714D02*
X132735952Y-47557857D01*
X132783571Y-47653095D01*
X132878809Y-47700714D01*
X132926428Y-47700714D01*
X132735952Y-46367380D02*
X132783571Y-46415000D01*
X132735952Y-46462619D01*
X132688333Y-46415000D01*
X132735952Y-46367380D01*
X132735952Y-46462619D01*
X132116904Y-47367380D02*
X132212142Y-47319761D01*
X132259761Y-47272142D01*
X132307380Y-47176904D01*
X132307380Y-46891190D01*
X132259761Y-46795952D01*
X132212142Y-46748333D01*
X132116904Y-46700714D01*
X131974047Y-46700714D01*
X131878809Y-46748333D01*
X131831190Y-46795952D01*
X131783571Y-46891190D01*
X131783571Y-47176904D01*
X131831190Y-47272142D01*
X131878809Y-47319761D01*
X131974047Y-47367380D01*
X132116904Y-47367380D01*
X131402619Y-47319761D02*
X131307380Y-47367380D01*
X131116904Y-47367380D01*
X131021666Y-47319761D01*
X130974047Y-47224523D01*
X130974047Y-47176904D01*
X131021666Y-47081666D01*
X131116904Y-47034047D01*
X131259761Y-47034047D01*
X131355000Y-46986428D01*
X131402619Y-46891190D01*
X131402619Y-46843571D01*
X131355000Y-46748333D01*
X131259761Y-46700714D01*
X131116904Y-46700714D01*
X131021666Y-46748333D01*
X130164523Y-47319761D02*
X130259761Y-47367380D01*
X130450238Y-47367380D01*
X130545476Y-47319761D01*
X130593095Y-47224523D01*
X130593095Y-46843571D01*
X130545476Y-46748333D01*
X130450238Y-46700714D01*
X130259761Y-46700714D01*
X130164523Y-46748333D01*
X130116904Y-46843571D01*
X130116904Y-46938809D01*
X130593095Y-47034047D01*
X129831190Y-46700714D02*
X129450238Y-46700714D01*
X129688333Y-47367380D02*
X129688333Y-46510238D01*
X129640714Y-46415000D01*
X129545476Y-46367380D01*
X129450238Y-46367380D01*
X128688333Y-47367380D02*
X128688333Y-46843571D01*
X128735952Y-46748333D01*
X128831190Y-46700714D01*
X129021666Y-46700714D01*
X129116904Y-46748333D01*
X128688333Y-47319761D02*
X128783571Y-47367380D01*
X129021666Y-47367380D01*
X129116904Y-47319761D01*
X129164523Y-47224523D01*
X129164523Y-47129285D01*
X129116904Y-47034047D01*
X129021666Y-46986428D01*
X128783571Y-46986428D01*
X128688333Y-46938809D01*
X127783571Y-47367380D02*
X127783571Y-46367380D01*
X127783571Y-47319761D02*
X127878809Y-47367380D01*
X128069285Y-47367380D01*
X128164523Y-47319761D01*
X128212142Y-47272142D01*
X128259761Y-47176904D01*
X128259761Y-46891190D01*
X128212142Y-46795952D01*
X128164523Y-46748333D01*
X128069285Y-46700714D01*
X127878809Y-46700714D01*
X127783571Y-46748333D01*
X126878809Y-47367380D02*
X126878809Y-46843571D01*
X126926428Y-46748333D01*
X127021666Y-46700714D01*
X127212142Y-46700714D01*
X127307380Y-46748333D01*
X126878809Y-47319761D02*
X126974047Y-47367380D01*
X127212142Y-47367380D01*
X127307380Y-47319761D01*
X127355000Y-47224523D01*
X127355000Y-47129285D01*
X127307380Y-47034047D01*
X127212142Y-46986428D01*
X126974047Y-46986428D01*
X126878809Y-46938809D01*
X126402619Y-47367380D02*
X126402619Y-46700714D01*
X126402619Y-46795952D02*
X126355000Y-46748333D01*
X126259761Y-46700714D01*
X126116904Y-46700714D01*
X126021666Y-46748333D01*
X125974047Y-46843571D01*
X125974047Y-47367380D01*
X125974047Y-46843571D02*
X125926428Y-46748333D01*
X125831190Y-46700714D01*
X125688333Y-46700714D01*
X125593095Y-46748333D01*
X125545476Y-46843571D01*
X125545476Y-47367380D01*
X124640714Y-47319761D02*
X124735952Y-47367380D01*
X124926428Y-47367380D01*
X125021666Y-47319761D01*
X125069285Y-47272142D01*
X125116904Y-47176904D01*
X125116904Y-46891190D01*
X125069285Y-46795952D01*
X125021666Y-46748333D01*
X124926428Y-46700714D01*
X124735952Y-46700714D01*
X124640714Y-46748333D01*
X124212142Y-47367380D02*
X124212142Y-46700714D01*
X124212142Y-46367380D02*
X124259761Y-46415000D01*
X124212142Y-46462619D01*
X124164523Y-46415000D01*
X124212142Y-46367380D01*
X124212142Y-46462619D01*
X123735952Y-47367380D02*
X123735952Y-46367380D01*
X123640714Y-46986428D02*
X123355000Y-47367380D01*
X123355000Y-46700714D02*
X123735952Y-47081666D01*
X122926428Y-47272142D02*
X122878809Y-47319761D01*
X122926428Y-47367380D01*
X122974047Y-47319761D01*
X122926428Y-47272142D01*
X122926428Y-47367380D01*
X122021666Y-46700714D02*
X122021666Y-47510238D01*
X122069285Y-47605476D01*
X122116904Y-47653095D01*
X122212142Y-47700714D01*
X122355000Y-47700714D01*
X122450238Y-47653095D01*
X122021666Y-47319761D02*
X122116904Y-47367380D01*
X122307380Y-47367380D01*
X122402619Y-47319761D01*
X122450238Y-47272142D01*
X122497857Y-47176904D01*
X122497857Y-46891190D01*
X122450238Y-46795952D01*
X122402619Y-46748333D01*
X122307380Y-46700714D01*
X122116904Y-46700714D01*
X122021666Y-46748333D01*
X121545476Y-47367380D02*
X121545476Y-46700714D01*
X121545476Y-46367380D02*
X121593095Y-46415000D01*
X121545476Y-46462619D01*
X121497857Y-46415000D01*
X121545476Y-46367380D01*
X121545476Y-46462619D01*
X121212142Y-46700714D02*
X120831190Y-46700714D01*
X121069285Y-46367380D02*
X121069285Y-47224523D01*
X121021666Y-47319761D01*
X120926428Y-47367380D01*
X120831190Y-47367380D01*
X120497857Y-47367380D02*
X120497857Y-46367380D01*
X120069285Y-47367380D02*
X120069285Y-46843571D01*
X120116904Y-46748333D01*
X120212142Y-46700714D01*
X120355000Y-46700714D01*
X120450238Y-46748333D01*
X120497857Y-46795952D01*
X119164523Y-46700714D02*
X119164523Y-47367380D01*
X119593095Y-46700714D02*
X119593095Y-47224523D01*
X119545476Y-47319761D01*
X119450238Y-47367380D01*
X119307380Y-47367380D01*
X119212142Y-47319761D01*
X119164523Y-47272142D01*
X118688333Y-47367380D02*
X118688333Y-46367380D01*
X118688333Y-46748333D02*
X118593095Y-46700714D01*
X118402619Y-46700714D01*
X118307380Y-46748333D01*
X118259761Y-46795952D01*
X118212142Y-46891190D01*
X118212142Y-47176904D01*
X118259761Y-47272142D01*
X118307380Y-47319761D01*
X118402619Y-47367380D01*
X118593095Y-47367380D01*
X118688333Y-47319761D01*
X117783571Y-47272142D02*
X117735952Y-47319761D01*
X117783571Y-47367380D01*
X117831190Y-47319761D01*
X117783571Y-47272142D01*
X117783571Y-47367380D01*
X117307380Y-47367380D02*
X117307380Y-46700714D01*
X117307380Y-46367380D02*
X117355000Y-46415000D01*
X117307380Y-46462619D01*
X117259761Y-46415000D01*
X117307380Y-46367380D01*
X117307380Y-46462619D01*
X116688333Y-47367380D02*
X116783571Y-47319761D01*
X116831190Y-47272142D01*
X116878809Y-47176904D01*
X116878809Y-46891190D01*
X116831190Y-46795952D01*
X116783571Y-46748333D01*
X116688333Y-46700714D01*
X116545476Y-46700714D01*
X116450238Y-46748333D01*
X116402619Y-46795952D01*
X116355000Y-46891190D01*
X116355000Y-47176904D01*
X116402619Y-47272142D01*
X116450238Y-47319761D01*
X116545476Y-47367380D01*
X116688333Y-47367380D01*
X115212142Y-46319761D02*
X116069285Y-47605476D01*
X114926428Y-47319761D02*
X114783571Y-47367380D01*
X114545476Y-47367380D01*
X114450238Y-47319761D01*
X114402619Y-47272142D01*
X114355000Y-47176904D01*
X114355000Y-47081666D01*
X114402619Y-46986428D01*
X114450238Y-46938809D01*
X114545476Y-46891190D01*
X114735952Y-46843571D01*
X114831190Y-46795952D01*
X114878809Y-46748333D01*
X114926428Y-46653095D01*
X114926428Y-46557857D01*
X114878809Y-46462619D01*
X114831190Y-46415000D01*
X114735952Y-46367380D01*
X114497857Y-46367380D01*
X114355000Y-46415000D01*
X113783571Y-47367380D02*
X113878809Y-47319761D01*
X113926428Y-47272142D01*
X113974047Y-47176904D01*
X113974047Y-46891190D01*
X113926428Y-46795952D01*
X113878809Y-46748333D01*
X113783571Y-46700714D01*
X113640714Y-46700714D01*
X113545476Y-46748333D01*
X113497857Y-46795952D01*
X113450238Y-46891190D01*
X113450238Y-47176904D01*
X113497857Y-47272142D01*
X113545476Y-47319761D01*
X113640714Y-47367380D01*
X113783571Y-47367380D01*
X113164523Y-46700714D02*
X112783571Y-46700714D01*
X113021666Y-47367380D02*
X113021666Y-46510238D01*
X112974047Y-46415000D01*
X112878809Y-46367380D01*
X112783571Y-46367380D01*
X112307380Y-47367380D02*
X112402619Y-47319761D01*
X112450238Y-47224523D01*
X112450238Y-46367380D01*
X111545476Y-47319761D02*
X111640714Y-47367380D01*
X111831190Y-47367380D01*
X111926428Y-47319761D01*
X111974047Y-47224523D01*
X111974047Y-46843571D01*
X111926428Y-46748333D01*
X111831190Y-46700714D01*
X111640714Y-46700714D01*
X111545476Y-46748333D01*
X111497857Y-46843571D01*
X111497857Y-46938809D01*
X111974047Y-47034047D01*
X111069285Y-47367380D02*
X111069285Y-46367380D01*
X110497857Y-47367380D02*
X110926428Y-46795952D01*
X110497857Y-46367380D02*
X111069285Y-46938809D01*
X109688333Y-47319761D02*
X109783571Y-47367380D01*
X109974047Y-47367380D01*
X110069285Y-47319761D01*
X110116904Y-47224523D01*
X110116904Y-46843571D01*
X110069285Y-46748333D01*
X109974047Y-46700714D01*
X109783571Y-46700714D01*
X109688333Y-46748333D01*
X109640714Y-46843571D01*
X109640714Y-46938809D01*
X110116904Y-47034047D01*
X109307380Y-46700714D02*
X109069285Y-47367380D01*
X108831190Y-46700714D02*
X109069285Y-47367380D01*
X109164523Y-47605476D01*
X109212142Y-47653095D01*
X109307380Y-47700714D01*
X108450238Y-47367380D02*
X108450238Y-46367380D01*
X108450238Y-46748333D02*
X108355000Y-46700714D01*
X108164523Y-46700714D01*
X108069285Y-46748333D01*
X108021666Y-46795952D01*
X107974047Y-46891190D01*
X107974047Y-47176904D01*
X108021666Y-47272142D01*
X108069285Y-47319761D01*
X108164523Y-47367380D01*
X108355000Y-47367380D01*
X108450238Y-47319761D01*
X107402619Y-47367380D02*
X107497857Y-47319761D01*
X107545476Y-47272142D01*
X107593095Y-47176904D01*
X107593095Y-46891190D01*
X107545476Y-46795952D01*
X107497857Y-46748333D01*
X107402619Y-46700714D01*
X107259761Y-46700714D01*
X107164523Y-46748333D01*
X107116904Y-46795952D01*
X107069285Y-46891190D01*
X107069285Y-47176904D01*
X107116904Y-47272142D01*
X107164523Y-47319761D01*
X107259761Y-47367380D01*
X107402619Y-47367380D01*
X106212142Y-47367380D02*
X106212142Y-46843571D01*
X106259761Y-46748333D01*
X106355000Y-46700714D01*
X106545476Y-46700714D01*
X106640714Y-46748333D01*
X106212142Y-47319761D02*
X106307380Y-47367380D01*
X106545476Y-47367380D01*
X106640714Y-47319761D01*
X106688333Y-47224523D01*
X106688333Y-47129285D01*
X106640714Y-47034047D01*
X106545476Y-46986428D01*
X106307380Y-46986428D01*
X106212142Y-46938809D01*
X105735952Y-47367380D02*
X105735952Y-46700714D01*
X105735952Y-46891190D02*
X105688333Y-46795952D01*
X105640714Y-46748333D01*
X105545476Y-46700714D01*
X105450238Y-46700714D01*
X104688333Y-47367380D02*
X104688333Y-46367380D01*
X104688333Y-47319761D02*
X104783571Y-47367380D01*
X104974047Y-47367380D01*
X105069285Y-47319761D01*
X105116904Y-47272142D01*
X105164523Y-47176904D01*
X105164523Y-46891190D01*
X105116904Y-46795952D01*
X105069285Y-46748333D01*
X104974047Y-46700714D01*
X104783571Y-46700714D01*
X104688333Y-46748333D01*
X103497857Y-46319761D02*
X104355000Y-47605476D01*
D11*
X134152619Y-48037380D02*
X133962142Y-48037380D01*
X133866904Y-48085000D01*
X133771666Y-48180238D01*
X133724047Y-48370714D01*
X133724047Y-48704047D01*
X133771666Y-48894523D01*
X133866904Y-48989761D01*
X133962142Y-49037380D01*
X134152619Y-49037380D01*
X134247857Y-48989761D01*
X134343095Y-48894523D01*
X134390714Y-48704047D01*
X134390714Y-48370714D01*
X134343095Y-48180238D01*
X134247857Y-48085000D01*
X134152619Y-48037380D01*
X133295476Y-49037380D02*
X133295476Y-48370714D01*
X133295476Y-48561190D02*
X133247857Y-48465952D01*
X133200238Y-48418333D01*
X133105000Y-48370714D01*
X133009761Y-48370714D01*
X132676428Y-49037380D02*
X132676428Y-48370714D01*
X132676428Y-48037380D02*
X132724047Y-48085000D01*
X132676428Y-48132619D01*
X132628809Y-48085000D01*
X132676428Y-48037380D01*
X132676428Y-48132619D01*
X131771666Y-48370714D02*
X131771666Y-49180238D01*
X131819285Y-49275476D01*
X131866904Y-49323095D01*
X131962142Y-49370714D01*
X132105000Y-49370714D01*
X132200238Y-49323095D01*
X131771666Y-48989761D02*
X131866904Y-49037380D01*
X132057380Y-49037380D01*
X132152619Y-48989761D01*
X132200238Y-48942142D01*
X132247857Y-48846904D01*
X132247857Y-48561190D01*
X132200238Y-48465952D01*
X132152619Y-48418333D01*
X132057380Y-48370714D01*
X131866904Y-48370714D01*
X131771666Y-48418333D01*
X131295476Y-49037380D02*
X131295476Y-48370714D01*
X131295476Y-48037380D02*
X131343095Y-48085000D01*
X131295476Y-48132619D01*
X131247857Y-48085000D01*
X131295476Y-48037380D01*
X131295476Y-48132619D01*
X130819285Y-48370714D02*
X130819285Y-49037380D01*
X130819285Y-48465952D02*
X130771666Y-48418333D01*
X130676428Y-48370714D01*
X130533571Y-48370714D01*
X130438333Y-48418333D01*
X130390714Y-48513571D01*
X130390714Y-49037380D01*
X129485952Y-49037380D02*
X129485952Y-48513571D01*
X129533571Y-48418333D01*
X129628809Y-48370714D01*
X129819285Y-48370714D01*
X129914523Y-48418333D01*
X129485952Y-48989761D02*
X129581190Y-49037380D01*
X129819285Y-49037380D01*
X129914523Y-48989761D01*
X129962142Y-48894523D01*
X129962142Y-48799285D01*
X129914523Y-48704047D01*
X129819285Y-48656428D01*
X129581190Y-48656428D01*
X129485952Y-48608809D01*
X128866904Y-49037380D02*
X128962142Y-48989761D01*
X129009761Y-48894523D01*
X129009761Y-48037380D01*
X127771666Y-48989761D02*
X127628809Y-49037380D01*
X127390714Y-49037380D01*
X127295476Y-48989761D01*
X127247857Y-48942142D01*
X127200238Y-48846904D01*
X127200238Y-48751666D01*
X127247857Y-48656428D01*
X127295476Y-48608809D01*
X127390714Y-48561190D01*
X127581190Y-48513571D01*
X127676428Y-48465952D01*
X127724047Y-48418333D01*
X127771666Y-48323095D01*
X127771666Y-48227857D01*
X127724047Y-48132619D01*
X127676428Y-48085000D01*
X127581190Y-48037380D01*
X127343095Y-48037380D01*
X127200238Y-48085000D01*
X126628809Y-49037380D02*
X126724047Y-48989761D01*
X126771666Y-48942142D01*
X126819285Y-48846904D01*
X126819285Y-48561190D01*
X126771666Y-48465952D01*
X126724047Y-48418333D01*
X126628809Y-48370714D01*
X126485952Y-48370714D01*
X126390714Y-48418333D01*
X126343095Y-48465952D01*
X126295476Y-48561190D01*
X126295476Y-48846904D01*
X126343095Y-48942142D01*
X126390714Y-48989761D01*
X126485952Y-49037380D01*
X126628809Y-49037380D01*
X126009761Y-48370714D02*
X125628809Y-48370714D01*
X125866904Y-49037380D02*
X125866904Y-48180238D01*
X125819285Y-48085000D01*
X125724047Y-48037380D01*
X125628809Y-48037380D01*
X125152619Y-49037380D02*
X125247857Y-48989761D01*
X125295476Y-48894523D01*
X125295476Y-48037380D01*
X124390714Y-48989761D02*
X124485952Y-49037380D01*
X124676428Y-49037380D01*
X124771666Y-48989761D01*
X124819285Y-48894523D01*
X124819285Y-48513571D01*
X124771666Y-48418333D01*
X124676428Y-48370714D01*
X124485952Y-48370714D01*
X124390714Y-48418333D01*
X124343095Y-48513571D01*
X124343095Y-48608809D01*
X124819285Y-48704047D01*
X122724047Y-49037380D02*
X122724047Y-48037380D01*
X122724047Y-48989761D02*
X122819285Y-49037380D01*
X123009761Y-49037380D01*
X123105000Y-48989761D01*
X123152619Y-48942142D01*
X123200238Y-48846904D01*
X123200238Y-48561190D01*
X123152619Y-48465952D01*
X123105000Y-48418333D01*
X123009761Y-48370714D01*
X122819285Y-48370714D01*
X122724047Y-48418333D01*
X121866904Y-48989761D02*
X121962142Y-49037380D01*
X122152619Y-49037380D01*
X122247857Y-48989761D01*
X122295476Y-48894523D01*
X122295476Y-48513571D01*
X122247857Y-48418333D01*
X122152619Y-48370714D01*
X121962142Y-48370714D01*
X121866904Y-48418333D01*
X121819285Y-48513571D01*
X121819285Y-48608809D01*
X122295476Y-48704047D01*
X121438333Y-48989761D02*
X121343095Y-49037380D01*
X121152619Y-49037380D01*
X121057380Y-48989761D01*
X121009761Y-48894523D01*
X121009761Y-48846904D01*
X121057380Y-48751666D01*
X121152619Y-48704047D01*
X121295476Y-48704047D01*
X121390714Y-48656428D01*
X121438333Y-48561190D01*
X121438333Y-48513571D01*
X121390714Y-48418333D01*
X121295476Y-48370714D01*
X121152619Y-48370714D01*
X121057380Y-48418333D01*
X120581190Y-49037380D02*
X120581190Y-48370714D01*
X120581190Y-48037380D02*
X120628809Y-48085000D01*
X120581190Y-48132619D01*
X120533571Y-48085000D01*
X120581190Y-48037380D01*
X120581190Y-48132619D01*
X119676428Y-48370714D02*
X119676428Y-49180238D01*
X119724047Y-49275476D01*
X119771666Y-49323095D01*
X119866904Y-49370714D01*
X120009761Y-49370714D01*
X120105000Y-49323095D01*
X119676428Y-48989761D02*
X119771666Y-49037380D01*
X119962142Y-49037380D01*
X120057380Y-48989761D01*
X120105000Y-48942142D01*
X120152619Y-48846904D01*
X120152619Y-48561190D01*
X120105000Y-48465952D01*
X120057380Y-48418333D01*
X119962142Y-48370714D01*
X119771666Y-48370714D01*
X119676428Y-48418333D01*
X119200238Y-48370714D02*
X119200238Y-49037380D01*
X119200238Y-48465952D02*
X119152619Y-48418333D01*
X119057380Y-48370714D01*
X118914523Y-48370714D01*
X118819285Y-48418333D01*
X118771666Y-48513571D01*
X118771666Y-49037380D01*
X117533571Y-49037380D02*
X117533571Y-48037380D01*
X117533571Y-48418333D02*
X117438333Y-48370714D01*
X117247857Y-48370714D01*
X117152619Y-48418333D01*
X117105000Y-48465952D01*
X117057380Y-48561190D01*
X117057380Y-48846904D01*
X117105000Y-48942142D01*
X117152619Y-48989761D01*
X117247857Y-49037380D01*
X117438333Y-49037380D01*
X117533571Y-48989761D01*
X116724047Y-48370714D02*
X116485952Y-49037380D01*
X116247857Y-48370714D02*
X116485952Y-49037380D01*
X116581190Y-49275476D01*
X116628809Y-49323095D01*
X116724047Y-49370714D01*
X114819285Y-48037380D02*
X114819285Y-48751666D01*
X114866904Y-48894523D01*
X114962142Y-48989761D01*
X115105000Y-49037380D01*
X115200238Y-49037380D01*
X114200238Y-49037380D02*
X114295476Y-48989761D01*
X114343095Y-48942142D01*
X114390714Y-48846904D01*
X114390714Y-48561190D01*
X114343095Y-48465952D01*
X114295476Y-48418333D01*
X114200238Y-48370714D01*
X114057380Y-48370714D01*
X113962142Y-48418333D01*
X113914523Y-48465952D01*
X113866904Y-48561190D01*
X113866904Y-48846904D01*
X113914523Y-48942142D01*
X113962142Y-48989761D01*
X114057380Y-49037380D01*
X114200238Y-49037380D01*
X113485952Y-48989761D02*
X113390714Y-49037380D01*
X113200238Y-49037380D01*
X113105000Y-48989761D01*
X113057380Y-48894523D01*
X113057380Y-48846904D01*
X113105000Y-48751666D01*
X113200238Y-48704047D01*
X113343095Y-48704047D01*
X113438333Y-48656428D01*
X113485952Y-48561190D01*
X113485952Y-48513571D01*
X113438333Y-48418333D01*
X113343095Y-48370714D01*
X113200238Y-48370714D01*
X113105000Y-48418333D01*
X112247857Y-48989761D02*
X112343095Y-49037380D01*
X112533571Y-49037380D01*
X112628809Y-48989761D01*
X112676428Y-48894523D01*
X112676428Y-48513571D01*
X112628809Y-48418333D01*
X112533571Y-48370714D01*
X112343095Y-48370714D01*
X112247857Y-48418333D01*
X112200238Y-48513571D01*
X112200238Y-48608809D01*
X112676428Y-48704047D01*
X111914523Y-48370714D02*
X111533571Y-48370714D01*
X111771666Y-49037380D02*
X111771666Y-48180238D01*
X111724047Y-48085000D01*
X111628809Y-48037380D01*
X111533571Y-48037380D01*
X110485952Y-48751666D02*
X110009761Y-48751666D01*
X110581190Y-49037380D02*
X110247857Y-48037380D01*
X109914523Y-49037380D01*
X109152619Y-49037380D02*
X109152619Y-48037380D01*
X109152619Y-48989761D02*
X109247857Y-49037380D01*
X109438333Y-49037380D01*
X109533571Y-48989761D01*
X109581190Y-48942142D01*
X109628809Y-48846904D01*
X109628809Y-48561190D01*
X109581190Y-48465952D01*
X109533571Y-48418333D01*
X109438333Y-48370714D01*
X109247857Y-48370714D01*
X109152619Y-48418333D01*
X108247857Y-49037380D02*
X108247857Y-48513571D01*
X108295476Y-48418333D01*
X108390714Y-48370714D01*
X108581190Y-48370714D01*
X108676428Y-48418333D01*
X108247857Y-48989761D02*
X108343095Y-49037380D01*
X108581190Y-49037380D01*
X108676428Y-48989761D01*
X108724047Y-48894523D01*
X108724047Y-48799285D01*
X108676428Y-48704047D01*
X108581190Y-48656428D01*
X108343095Y-48656428D01*
X108247857Y-48608809D01*
X107771666Y-49037380D02*
X107771666Y-48370714D01*
X107771666Y-48465952D02*
X107724047Y-48418333D01*
X107628809Y-48370714D01*
X107485952Y-48370714D01*
X107390714Y-48418333D01*
X107343095Y-48513571D01*
X107343095Y-49037380D01*
X107343095Y-48513571D02*
X107295476Y-48418333D01*
X107200238Y-48370714D01*
X107057380Y-48370714D01*
X106962142Y-48418333D01*
X106914523Y-48513571D01*
X106914523Y-49037380D01*
X106009761Y-49037380D02*
X106009761Y-48513571D01*
X106057380Y-48418333D01*
X106152619Y-48370714D01*
X106343095Y-48370714D01*
X106438333Y-48418333D01*
X106009761Y-48989761D02*
X106105000Y-49037380D01*
X106343095Y-49037380D01*
X106438333Y-48989761D01*
X106485952Y-48894523D01*
X106485952Y-48799285D01*
X106438333Y-48704047D01*
X106343095Y-48656428D01*
X106105000Y-48656428D01*
X106009761Y-48608809D01*
X105105000Y-48989761D02*
X105200238Y-49037380D01*
X105390714Y-49037380D01*
X105485952Y-48989761D01*
X105533571Y-48942142D01*
X105581190Y-48846904D01*
X105581190Y-48561190D01*
X105533571Y-48465952D01*
X105485952Y-48418333D01*
X105390714Y-48370714D01*
X105200238Y-48370714D01*
X105105000Y-48418333D01*
X104676428Y-49037380D02*
X104676428Y-48370714D01*
X104676428Y-48037380D02*
X104724047Y-48085000D01*
X104676428Y-48132619D01*
X104628809Y-48085000D01*
X104676428Y-48037380D01*
X104676428Y-48132619D01*
X104200238Y-49037380D02*
X104200238Y-48037380D01*
X104105000Y-48656428D02*
X103819285Y-49037380D01*
X103819285Y-48370714D02*
X104200238Y-48751666D01*
%LPC*%
G36*
X125895396Y-104427539D02*
G01*
X126092954Y-104620006D01*
X126315281Y-104975797D01*
X126573224Y-105494667D01*
X126726076Y-105807577D01*
X126894151Y-106114959D01*
X127031538Y-106326036D01*
X127120462Y-106411042D01*
X127213528Y-106486042D01*
X127255859Y-106707375D01*
X127259035Y-106764582D01*
X127313354Y-107037196D01*
X127413213Y-107318655D01*
X127474369Y-107469327D01*
X127517685Y-107644479D01*
X127533963Y-107860485D01*
X127525999Y-108159829D01*
X127496591Y-108584993D01*
X127475965Y-108899986D01*
X127464438Y-109228311D01*
X127468136Y-109461656D01*
X127487404Y-109563218D01*
X127487458Y-109563264D01*
X127583573Y-109621803D01*
X127798250Y-109740866D01*
X128099744Y-109903151D01*
X128456314Y-110091354D01*
X129362294Y-110565282D01*
X129831795Y-109829141D01*
X129860743Y-109783451D01*
X130098471Y-109377361D01*
X130248977Y-109056806D01*
X130301648Y-108844042D01*
X130294096Y-108730259D01*
X130239935Y-108442883D01*
X130146496Y-108107518D01*
X130029137Y-107766786D01*
X129903217Y-107463310D01*
X129784094Y-107239713D01*
X129687127Y-107138619D01*
X129623045Y-107107041D01*
X129557853Y-106987309D01*
X129610309Y-106857564D01*
X129766426Y-106780898D01*
X129907123Y-106798532D01*
X130010429Y-106949004D01*
X130056892Y-107066087D01*
X130205819Y-107313906D01*
X130393374Y-107532446D01*
X130581410Y-107680997D01*
X130731779Y-107718847D01*
X130736962Y-107717447D01*
X130835538Y-107655343D01*
X130887171Y-107511169D01*
X130907834Y-107241625D01*
X130911140Y-107094522D01*
X130911645Y-106812287D01*
X130904419Y-106615154D01*
X130903442Y-106579631D01*
X130967232Y-106418550D01*
X131105487Y-106353058D01*
X131258071Y-106416871D01*
X131308266Y-106497717D01*
X131268163Y-106660947D01*
X131231474Y-106798538D01*
X131250830Y-107046402D01*
X131328074Y-107313828D01*
X131443603Y-107537853D01*
X131577813Y-107655512D01*
X131596426Y-107660001D01*
X131781560Y-107634773D01*
X132017753Y-107531568D01*
X132252054Y-107383194D01*
X132431514Y-107222458D01*
X132503182Y-107082167D01*
X132530623Y-106993017D01*
X132675324Y-106934000D01*
X132811731Y-106958049D01*
X132888354Y-107066098D01*
X132830062Y-107246268D01*
X132637960Y-107482351D01*
X132422455Y-107708586D01*
X132221429Y-107968035D01*
X132131908Y-108177609D01*
X132138038Y-108365316D01*
X132156310Y-108427579D01*
X132204348Y-108502720D01*
X132304697Y-108536992D01*
X132496151Y-108539096D01*
X132817501Y-108517734D01*
X133038886Y-108503361D01*
X133292101Y-108501296D01*
X133431739Y-108529677D01*
X133491489Y-108592228D01*
X133502151Y-108628127D01*
X133473264Y-108793993D01*
X133347467Y-108895887D01*
X133180942Y-108881481D01*
X133134284Y-108869135D01*
X132932138Y-108881404D01*
X132639463Y-108942563D01*
X132302183Y-109040024D01*
X131966226Y-109161201D01*
X131677516Y-109293509D01*
X131644217Y-109320032D01*
X131506744Y-109456472D01*
X131292240Y-109683976D01*
X131022793Y-109977785D01*
X130720491Y-110313139D01*
X130407421Y-110665279D01*
X130105672Y-111009445D01*
X129837331Y-111320878D01*
X129624486Y-111574817D01*
X129489225Y-111746503D01*
X129487979Y-111747191D01*
X129399538Y-111713045D01*
X129195163Y-111611304D01*
X128903671Y-111456822D01*
X128553882Y-111264451D01*
X128523565Y-111247534D01*
X128176841Y-111057378D01*
X127890221Y-110906045D01*
X127692734Y-110808497D01*
X127613413Y-110779699D01*
X127611511Y-110816119D01*
X127619728Y-110997072D01*
X127640343Y-111308222D01*
X127671630Y-111725858D01*
X127711865Y-112226271D01*
X127759324Y-112785750D01*
X127759889Y-112792261D01*
X127819568Y-113515884D01*
X127860233Y-114109811D01*
X127883050Y-114612165D01*
X127889185Y-115061067D01*
X127879802Y-115494639D01*
X127856067Y-115951000D01*
X127846544Y-116103516D01*
X127822792Y-116512215D01*
X127806058Y-116844692D01*
X127797793Y-117070037D01*
X127799446Y-117157341D01*
X127803427Y-117156246D01*
X127892684Y-117086823D01*
X128084123Y-116923538D01*
X128358715Y-116683026D01*
X128697427Y-116381924D01*
X129081230Y-116036868D01*
X129159761Y-115965985D01*
X129539182Y-115626020D01*
X129872103Y-115331744D01*
X130138866Y-115100255D01*
X130319810Y-114948650D01*
X130395276Y-114894027D01*
X130408156Y-114918556D01*
X130443417Y-115077982D01*
X130490156Y-115361153D01*
X130543816Y-115739345D01*
X130599842Y-116183834D01*
X130629825Y-116438846D01*
X130692530Y-116972094D01*
X130745538Y-117351781D01*
X130800462Y-117587787D01*
X130868915Y-117689992D01*
X130962511Y-117668275D01*
X131092860Y-117532516D01*
X131271578Y-117292595D01*
X131510276Y-116958391D01*
X132164666Y-116050723D01*
X132164666Y-115174213D01*
X132164203Y-115072631D01*
X132148814Y-114630729D01*
X132113431Y-114308680D01*
X132060488Y-114130887D01*
X132049946Y-114113639D01*
X132003307Y-113964107D01*
X132092944Y-113827437D01*
X132211303Y-113755140D01*
X132383258Y-113762573D01*
X132507814Y-113871296D01*
X132526519Y-114051148D01*
X132521700Y-114179189D01*
X132558068Y-114433043D01*
X132632227Y-114729590D01*
X132705577Y-114957438D01*
X132786470Y-115134560D01*
X132877283Y-115213379D01*
X133005898Y-115231334D01*
X133111148Y-115218923D01*
X133218589Y-115149568D01*
X133324575Y-114988650D01*
X133458170Y-114702167D01*
X133571437Y-114424189D01*
X133656256Y-114179650D01*
X133688677Y-114034708D01*
X133693709Y-113996994D01*
X133791464Y-113883076D01*
X133954643Y-113843632D01*
X134104860Y-113903394D01*
X134163949Y-113982041D01*
X134178202Y-114174164D01*
X134031418Y-114371095D01*
X133945918Y-114481663D01*
X133858563Y-114747102D01*
X133835208Y-115061673D01*
X133878189Y-115358070D01*
X133989843Y-115568983D01*
X134008336Y-115587168D01*
X134105394Y-115664392D01*
X134216694Y-115690673D01*
X134391955Y-115668176D01*
X134680893Y-115599063D01*
X134908973Y-115533794D01*
X135153565Y-115425454D01*
X135258099Y-115306237D01*
X135308555Y-115209810D01*
X135448012Y-115152304D01*
X135619066Y-115248267D01*
X135710799Y-115419123D01*
X135693923Y-115595584D01*
X135572500Y-115704015D01*
X135425397Y-115763113D01*
X135180886Y-115876275D01*
X134892301Y-116018858D01*
X134714969Y-116116005D01*
X134416575Y-116337887D01*
X134284706Y-116549793D01*
X134320521Y-116750244D01*
X134330326Y-116763243D01*
X134471064Y-116863183D01*
X134710139Y-116981382D01*
X134991712Y-117094960D01*
X135259942Y-117181037D01*
X135458991Y-117216733D01*
X135548391Y-117230139D01*
X135687055Y-117335850D01*
X135705791Y-117498346D01*
X135587621Y-117659224D01*
X135566935Y-117673959D01*
X135430426Y-117724312D01*
X135292868Y-117640293D01*
X135275081Y-117626228D01*
X135075206Y-117546776D01*
X134760949Y-117488357D01*
X134379055Y-117453764D01*
X133976269Y-117445791D01*
X133599333Y-117467232D01*
X133294993Y-117520882D01*
X133184379Y-117557392D01*
X133029664Y-117631204D01*
X132852614Y-117747056D01*
X132633861Y-117920596D01*
X132354034Y-118167474D01*
X131993761Y-118503339D01*
X131533674Y-118943840D01*
X130175000Y-120254065D01*
X130071075Y-119160866D01*
X130065250Y-119099812D01*
X130024767Y-118687228D01*
X129988572Y-118337282D01*
X129960423Y-118085302D01*
X129944075Y-117966613D01*
X129940215Y-117961172D01*
X129853654Y-117997147D01*
X129672987Y-118128836D01*
X129421671Y-118337962D01*
X129123164Y-118606246D01*
X128325327Y-119346933D01*
X128818969Y-120188967D01*
X129134269Y-120717043D01*
X129555528Y-121380817D01*
X129943251Y-121929936D01*
X130317720Y-122388590D01*
X130699217Y-122780970D01*
X131108021Y-123131266D01*
X131564415Y-123463671D01*
X131697827Y-123552081D01*
X132256103Y-123883948D01*
X132866712Y-124198476D01*
X133468496Y-124465735D01*
X134000300Y-124655795D01*
X134274323Y-124727822D01*
X135144838Y-124845491D01*
X136046325Y-124812352D01*
X136953523Y-124632745D01*
X137841169Y-124311008D01*
X138684000Y-123851478D01*
X138721575Y-123826544D01*
X139044001Y-123583799D01*
X139434248Y-123252875D01*
X139854829Y-122868936D01*
X140268255Y-122467146D01*
X140637038Y-122082669D01*
X140923689Y-121750667D01*
X141158595Y-121454334D01*
X140963444Y-121793000D01*
X140563634Y-122422064D01*
X139868505Y-123287374D01*
X139081983Y-124031771D01*
X138218015Y-124645848D01*
X137290544Y-125120201D01*
X136313518Y-125445423D01*
X135300882Y-125612109D01*
X135012646Y-125625393D01*
X134416540Y-125610592D01*
X133762851Y-125552809D01*
X133117315Y-125458661D01*
X132545666Y-125334765D01*
X132070077Y-125178915D01*
X131502521Y-124944647D01*
X130912154Y-124662480D01*
X130356039Y-124359737D01*
X129891238Y-124063740D01*
X129440929Y-123713513D01*
X128868760Y-123194557D01*
X128311612Y-122617403D01*
X127813946Y-122028633D01*
X127420224Y-121474828D01*
X127277817Y-121251767D01*
X127100678Y-120986134D01*
X126969730Y-120804205D01*
X126906101Y-120736326D01*
X126840520Y-120779842D01*
X126674728Y-120918676D01*
X126437025Y-121130276D01*
X126154112Y-121391385D01*
X125453689Y-122048104D01*
X126629011Y-123116605D01*
X126916497Y-123376474D01*
X127330876Y-123748926D01*
X127638679Y-124033879D01*
X127848011Y-124252123D01*
X127966982Y-124424448D01*
X128003696Y-124571646D01*
X127966262Y-124714506D01*
X127862787Y-124873819D01*
X127701377Y-125070376D01*
X127490140Y-125324966D01*
X127454882Y-125368847D01*
X127086726Y-125829161D01*
X126809480Y-126187660D01*
X126609257Y-126472288D01*
X126472174Y-126710990D01*
X126384345Y-126931708D01*
X126331885Y-127162389D01*
X126300910Y-127430975D01*
X126277535Y-127765411D01*
X126260756Y-128049225D01*
X126250322Y-128367733D01*
X126260761Y-128571973D01*
X126294588Y-128694815D01*
X126354317Y-128769135D01*
X126437608Y-128878553D01*
X126402575Y-129040891D01*
X126369513Y-129091316D01*
X126217055Y-129187405D01*
X126053379Y-129169447D01*
X125935756Y-129057563D01*
X125921458Y-128871873D01*
X125924025Y-128723137D01*
X125883231Y-128460774D01*
X125806147Y-128155367D01*
X125789935Y-128101568D01*
X125702986Y-127836375D01*
X125630504Y-127696272D01*
X125547073Y-127647882D01*
X125427280Y-127657832D01*
X125303997Y-127705797D01*
X125163368Y-127854322D01*
X125018668Y-128132838D01*
X124946693Y-128302588D01*
X124836442Y-128589624D01*
X124767610Y-128804663D01*
X124705945Y-128937138D01*
X124562770Y-129020574D01*
X124403207Y-128971490D01*
X124278530Y-128791289D01*
X124265509Y-128753776D01*
X124255636Y-128615531D01*
X124364615Y-128551335D01*
X124417100Y-128528914D01*
X124515298Y-128394672D01*
X124576468Y-128124063D01*
X124614823Y-127802647D01*
X124619423Y-127585522D01*
X124583916Y-127436938D01*
X124503878Y-127307114D01*
X124497772Y-127299119D01*
X124419001Y-127220156D01*
X124312358Y-127188569D01*
X124131997Y-127200645D01*
X123832070Y-127252666D01*
X123824332Y-127254131D01*
X123498437Y-127330123D01*
X123310400Y-127413265D01*
X123229460Y-127517053D01*
X123229306Y-127517535D01*
X123116075Y-127648936D01*
X122941757Y-127665684D01*
X122775573Y-127561065D01*
X122716796Y-127386402D01*
X122799424Y-127221449D01*
X123000852Y-127113783D01*
X123145518Y-127062203D01*
X123404027Y-126944049D01*
X123690013Y-126793969D01*
X123721649Y-126776095D01*
X123990304Y-126604660D01*
X124135627Y-126457435D01*
X124190064Y-126302532D01*
X124194575Y-126229048D01*
X124159708Y-126106966D01*
X124036512Y-125996939D01*
X123790712Y-125861077D01*
X123617661Y-125782397D01*
X123330149Y-125683847D01*
X123108148Y-125645334D01*
X123103123Y-125645327D01*
X122925120Y-125634702D01*
X122851333Y-125609925D01*
X122846374Y-125581251D01*
X122804131Y-125451508D01*
X122806030Y-125343449D01*
X122899525Y-125185903D01*
X122989542Y-125106690D01*
X123084652Y-125100340D01*
X123221894Y-125210696D01*
X123259529Y-125242956D01*
X123383584Y-125312635D01*
X123564825Y-125357608D01*
X123840619Y-125384809D01*
X124248333Y-125401172D01*
X124687367Y-125402141D01*
X125127755Y-125372817D01*
X125433666Y-125312264D01*
X125609274Y-125237718D01*
X125861485Y-125098807D01*
X126121498Y-124931759D01*
X126350129Y-124763749D01*
X126508192Y-124621953D01*
X126556501Y-124533548D01*
X126538418Y-124514241D01*
X126408758Y-124407258D01*
X126171305Y-124222910D01*
X125845874Y-123976281D01*
X125452279Y-123682454D01*
X125010333Y-123356513D01*
X124793641Y-123196755D01*
X124376494Y-122884007D01*
X124019951Y-122609738D01*
X123743198Y-122389089D01*
X123565422Y-122237200D01*
X123505808Y-122169213D01*
X123521348Y-122141451D01*
X123620082Y-121994098D01*
X123797124Y-121740838D01*
X124038044Y-121402034D01*
X124328412Y-120998048D01*
X124653798Y-120549242D01*
X124818550Y-120322739D01*
X125132381Y-119890208D01*
X125406535Y-119510960D01*
X125625975Y-119205870D01*
X125775665Y-118995813D01*
X125840569Y-118901664D01*
X125841278Y-118877370D01*
X125791187Y-118722597D01*
X125675964Y-118451031D01*
X125506167Y-118085714D01*
X125292359Y-117649688D01*
X125045099Y-117165997D01*
X124191374Y-115527667D01*
X124325365Y-113375401D01*
X124355796Y-112872034D01*
X124386053Y-112335190D01*
X124409535Y-111875956D01*
X124425163Y-111517173D01*
X124431858Y-111281681D01*
X124428540Y-111192318D01*
X124419973Y-111196171D01*
X124341666Y-111294848D01*
X124197677Y-111504928D01*
X124004787Y-111801400D01*
X123779777Y-112159251D01*
X123707542Y-112275822D01*
X123490273Y-112625683D01*
X123311348Y-112912657D01*
X123187665Y-113109692D01*
X123136119Y-113189740D01*
X123118678Y-113192591D01*
X122971036Y-113182638D01*
X122698742Y-113151524D01*
X122332090Y-113102911D01*
X121901371Y-113040463D01*
X121749508Y-113017853D01*
X121310100Y-112955294D01*
X120927926Y-112904941D01*
X120639673Y-112871470D01*
X120482023Y-112859556D01*
X120287910Y-112896719D01*
X120006909Y-112996566D01*
X119682410Y-113138794D01*
X119354845Y-113303095D01*
X119064647Y-113469162D01*
X118852249Y-113616690D01*
X118758084Y-113725371D01*
X118708506Y-113820269D01*
X118560501Y-113861999D01*
X118558478Y-113861599D01*
X118443572Y-113782145D01*
X118380195Y-113643544D01*
X118383322Y-113511904D01*
X118467928Y-113453334D01*
X118511058Y-113445036D01*
X118671566Y-113347131D01*
X118859032Y-113174379D01*
X119033372Y-112971572D01*
X119154503Y-112783506D01*
X119182341Y-112654973D01*
X119073027Y-112575821D01*
X118853043Y-112529832D01*
X118578951Y-112519736D01*
X118307057Y-112547579D01*
X118093666Y-112615408D01*
X117968616Y-112651483D01*
X117828416Y-112581799D01*
X117772630Y-112382892D01*
X117772683Y-112377904D01*
X117844869Y-112268154D01*
X117996077Y-112218289D01*
X118141898Y-112257069D01*
X118152962Y-112264236D01*
X118300294Y-112267074D01*
X118517383Y-112196602D01*
X118748062Y-112080482D01*
X118936163Y-111946372D01*
X119025517Y-111821933D01*
X118992544Y-111665339D01*
X118868692Y-111450698D01*
X118694619Y-111233564D01*
X118511843Y-111065482D01*
X118361882Y-110998000D01*
X118277707Y-110989579D01*
X118149243Y-110894820D01*
X118161117Y-110709307D01*
X118197684Y-110632656D01*
X118261616Y-110590324D01*
X118373288Y-110617950D01*
X118562995Y-110724629D01*
X118861032Y-110919458D01*
X119197921Y-111124522D01*
X119448447Y-111219712D01*
X119608658Y-111189024D01*
X119693687Y-111029241D01*
X119718666Y-110737146D01*
X119713850Y-110603548D01*
X119676731Y-110334171D01*
X119614953Y-110152298D01*
X119555255Y-110009464D01*
X119609262Y-109888204D01*
X119636169Y-109864694D01*
X119789071Y-109827678D01*
X119918257Y-109919248D01*
X119972666Y-110108457D01*
X119996588Y-110244869D01*
X120091170Y-110514584D01*
X120234355Y-110836566D01*
X120401006Y-111159470D01*
X120565986Y-111431949D01*
X120704160Y-111602658D01*
X120782954Y-111649045D01*
X120992447Y-111736998D01*
X121282417Y-111841338D01*
X121612942Y-111949649D01*
X121944101Y-112049515D01*
X122235973Y-112128521D01*
X122448636Y-112174250D01*
X122542169Y-112174288D01*
X122595008Y-112104961D01*
X122734747Y-111921494D01*
X122944496Y-111646062D01*
X123207628Y-111300499D01*
X123507517Y-110906638D01*
X124447342Y-109672276D01*
X124322278Y-108714475D01*
X124315887Y-108665369D01*
X124265562Y-108251626D01*
X124241474Y-107961145D01*
X124243821Y-107753827D01*
X124272799Y-107589575D01*
X124328607Y-107428290D01*
X124344865Y-107385398D01*
X124426683Y-107084085D01*
X124460000Y-106805287D01*
X124460051Y-106794407D01*
X124489908Y-106587649D01*
X124565833Y-106510637D01*
X124569249Y-106510178D01*
X124641735Y-106424612D01*
X124755059Y-106212282D01*
X124894368Y-105903629D01*
X125044807Y-105529092D01*
X125135956Y-105295790D01*
X125342888Y-104832520D01*
X125531208Y-104533552D01*
X125711762Y-104398639D01*
X125895396Y-104427539D01*
G37*
D12*
X125895396Y-104427539D02*
X126092954Y-104620006D01*
X126315281Y-104975797D01*
X126573224Y-105494667D01*
X126726076Y-105807577D01*
X126894151Y-106114959D01*
X127031538Y-106326036D01*
X127120462Y-106411042D01*
X127213528Y-106486042D01*
X127255859Y-106707375D01*
X127259035Y-106764582D01*
X127313354Y-107037196D01*
X127413213Y-107318655D01*
X127474369Y-107469327D01*
X127517685Y-107644479D01*
X127533963Y-107860485D01*
X127525999Y-108159829D01*
X127496591Y-108584993D01*
X127475965Y-108899986D01*
X127464438Y-109228311D01*
X127468136Y-109461656D01*
X127487404Y-109563218D01*
X127487458Y-109563264D01*
X127583573Y-109621803D01*
X127798250Y-109740866D01*
X128099744Y-109903151D01*
X128456314Y-110091354D01*
X129362294Y-110565282D01*
X129831795Y-109829141D01*
X129860743Y-109783451D01*
X130098471Y-109377361D01*
X130248977Y-109056806D01*
X130301648Y-108844042D01*
X130294096Y-108730259D01*
X130239935Y-108442883D01*
X130146496Y-108107518D01*
X130029137Y-107766786D01*
X129903217Y-107463310D01*
X129784094Y-107239713D01*
X129687127Y-107138619D01*
X129623045Y-107107041D01*
X129557853Y-106987309D01*
X129610309Y-106857564D01*
X129766426Y-106780898D01*
X129907123Y-106798532D01*
X130010429Y-106949004D01*
X130056892Y-107066087D01*
X130205819Y-107313906D01*
X130393374Y-107532446D01*
X130581410Y-107680997D01*
X130731779Y-107718847D01*
X130736962Y-107717447D01*
X130835538Y-107655343D01*
X130887171Y-107511169D01*
X130907834Y-107241625D01*
X130911140Y-107094522D01*
X130911645Y-106812287D01*
X130904419Y-106615154D01*
X130903442Y-106579631D01*
X130967232Y-106418550D01*
X131105487Y-106353058D01*
X131258071Y-106416871D01*
X131308266Y-106497717D01*
X131268163Y-106660947D01*
X131231474Y-106798538D01*
X131250830Y-107046402D01*
X131328074Y-107313828D01*
X131443603Y-107537853D01*
X131577813Y-107655512D01*
X131596426Y-107660001D01*
X131781560Y-107634773D01*
X132017753Y-107531568D01*
X132252054Y-107383194D01*
X132431514Y-107222458D01*
X132503182Y-107082167D01*
X132530623Y-106993017D01*
X132675324Y-106934000D01*
X132811731Y-106958049D01*
X132888354Y-107066098D01*
X132830062Y-107246268D01*
X132637960Y-107482351D01*
X132422455Y-107708586D01*
X132221429Y-107968035D01*
X132131908Y-108177609D01*
X132138038Y-108365316D01*
X132156310Y-108427579D01*
X132204348Y-108502720D01*
X132304697Y-108536992D01*
X132496151Y-108539096D01*
X132817501Y-108517734D01*
X133038886Y-108503361D01*
X133292101Y-108501296D01*
X133431739Y-108529677D01*
X133491489Y-108592228D01*
X133502151Y-108628127D01*
X133473264Y-108793993D01*
X133347467Y-108895887D01*
X133180942Y-108881481D01*
X133134284Y-108869135D01*
X132932138Y-108881404D01*
X132639463Y-108942563D01*
X132302183Y-109040024D01*
X131966226Y-109161201D01*
X131677516Y-109293509D01*
X131644217Y-109320032D01*
X131506744Y-109456472D01*
X131292240Y-109683976D01*
X131022793Y-109977785D01*
X130720491Y-110313139D01*
X130407421Y-110665279D01*
X130105672Y-111009445D01*
X129837331Y-111320878D01*
X129624486Y-111574817D01*
X129489225Y-111746503D01*
X129487979Y-111747191D01*
X129399538Y-111713045D01*
X129195163Y-111611304D01*
X128903671Y-111456822D01*
X128553882Y-111264451D01*
X128523565Y-111247534D01*
X128176841Y-111057378D01*
X127890221Y-110906045D01*
X127692734Y-110808497D01*
X127613413Y-110779699D01*
X127611511Y-110816119D01*
X127619728Y-110997072D01*
X127640343Y-111308222D01*
X127671630Y-111725858D01*
X127711865Y-112226271D01*
X127759324Y-112785750D01*
X127759889Y-112792261D01*
X127819568Y-113515884D01*
X127860233Y-114109811D01*
X127883050Y-114612165D01*
X127889185Y-115061067D01*
X127879802Y-115494639D01*
X127856067Y-115951000D01*
X127846544Y-116103516D01*
X127822792Y-116512215D01*
X127806058Y-116844692D01*
X127797793Y-117070037D01*
X127799446Y-117157341D01*
X127803427Y-117156246D01*
X127892684Y-117086823D01*
X128084123Y-116923538D01*
X128358715Y-116683026D01*
X128697427Y-116381924D01*
X129081230Y-116036868D01*
X129159761Y-115965985D01*
X129539182Y-115626020D01*
X129872103Y-115331744D01*
X130138866Y-115100255D01*
X130319810Y-114948650D01*
X130395276Y-114894027D01*
X130408156Y-114918556D01*
X130443417Y-115077982D01*
X130490156Y-115361153D01*
X130543816Y-115739345D01*
X130599842Y-116183834D01*
X130629825Y-116438846D01*
X130692530Y-116972094D01*
X130745538Y-117351781D01*
X130800462Y-117587787D01*
X130868915Y-117689992D01*
X130962511Y-117668275D01*
X131092860Y-117532516D01*
X131271578Y-117292595D01*
X131510276Y-116958391D01*
X132164666Y-116050723D01*
X132164666Y-115174213D01*
X132164203Y-115072631D01*
X132148814Y-114630729D01*
X132113431Y-114308680D01*
X132060488Y-114130887D01*
X132049946Y-114113639D01*
X132003307Y-113964107D01*
X132092944Y-113827437D01*
X132211303Y-113755140D01*
X132383258Y-113762573D01*
X132507814Y-113871296D01*
X132526519Y-114051148D01*
X132521700Y-114179189D01*
X132558068Y-114433043D01*
X132632227Y-114729590D01*
X132705577Y-114957438D01*
X132786470Y-115134560D01*
X132877283Y-115213379D01*
X133005898Y-115231334D01*
X133111148Y-115218923D01*
X133218589Y-115149568D01*
X133324575Y-114988650D01*
X133458170Y-114702167D01*
X133571437Y-114424189D01*
X133656256Y-114179650D01*
X133688677Y-114034708D01*
X133693709Y-113996994D01*
X133791464Y-113883076D01*
X133954643Y-113843632D01*
X134104860Y-113903394D01*
X134163949Y-113982041D01*
X134178202Y-114174164D01*
X134031418Y-114371095D01*
X133945918Y-114481663D01*
X133858563Y-114747102D01*
X133835208Y-115061673D01*
X133878189Y-115358070D01*
X133989843Y-115568983D01*
X134008336Y-115587168D01*
X134105394Y-115664392D01*
X134216694Y-115690673D01*
X134391955Y-115668176D01*
X134680893Y-115599063D01*
X134908973Y-115533794D01*
X135153565Y-115425454D01*
X135258099Y-115306237D01*
X135308555Y-115209810D01*
X135448012Y-115152304D01*
X135619066Y-115248267D01*
X135710799Y-115419123D01*
X135693923Y-115595584D01*
X135572500Y-115704015D01*
X135425397Y-115763113D01*
X135180886Y-115876275D01*
X134892301Y-116018858D01*
X134714969Y-116116005D01*
X134416575Y-116337887D01*
X134284706Y-116549793D01*
X134320521Y-116750244D01*
X134330326Y-116763243D01*
X134471064Y-116863183D01*
X134710139Y-116981382D01*
X134991712Y-117094960D01*
X135259942Y-117181037D01*
X135458991Y-117216733D01*
X135548391Y-117230139D01*
X135687055Y-117335850D01*
X135705791Y-117498346D01*
X135587621Y-117659224D01*
X135566935Y-117673959D01*
X135430426Y-117724312D01*
X135292868Y-117640293D01*
X135275081Y-117626228D01*
X135075206Y-117546776D01*
X134760949Y-117488357D01*
X134379055Y-117453764D01*
X133976269Y-117445791D01*
X133599333Y-117467232D01*
X133294993Y-117520882D01*
X133184379Y-117557392D01*
X133029664Y-117631204D01*
X132852614Y-117747056D01*
X132633861Y-117920596D01*
X132354034Y-118167474D01*
X131993761Y-118503339D01*
X131533674Y-118943840D01*
X130175000Y-120254065D01*
X130071075Y-119160866D01*
X130065250Y-119099812D01*
X130024767Y-118687228D01*
X129988572Y-118337282D01*
X129960423Y-118085302D01*
X129944075Y-117966613D01*
X129940215Y-117961172D01*
X129853654Y-117997147D01*
X129672987Y-118128836D01*
X129421671Y-118337962D01*
X129123164Y-118606246D01*
X128325327Y-119346933D01*
X128818969Y-120188967D01*
X129134269Y-120717043D01*
X129555528Y-121380817D01*
X129943251Y-121929936D01*
X130317720Y-122388590D01*
X130699217Y-122780970D01*
X131108021Y-123131266D01*
X131564415Y-123463671D01*
X131697827Y-123552081D01*
X132256103Y-123883948D01*
X132866712Y-124198476D01*
X133468496Y-124465735D01*
X134000300Y-124655795D01*
X134274323Y-124727822D01*
X135144838Y-124845491D01*
X136046325Y-124812352D01*
X136953523Y-124632745D01*
X137841169Y-124311008D01*
X138684000Y-123851478D01*
X138721575Y-123826544D01*
X139044001Y-123583799D01*
X139434248Y-123252875D01*
X139854829Y-122868936D01*
X140268255Y-122467146D01*
X140637038Y-122082669D01*
X140923689Y-121750667D01*
X141158595Y-121454334D01*
X140963444Y-121793000D01*
X140563634Y-122422064D01*
X139868505Y-123287374D01*
X139081983Y-124031771D01*
X138218015Y-124645848D01*
X137290544Y-125120201D01*
X136313518Y-125445423D01*
X135300882Y-125612109D01*
X135012646Y-125625393D01*
X134416540Y-125610592D01*
X133762851Y-125552809D01*
X133117315Y-125458661D01*
X132545666Y-125334765D01*
X132070077Y-125178915D01*
X131502521Y-124944647D01*
X130912154Y-124662480D01*
X130356039Y-124359737D01*
X129891238Y-124063740D01*
X129440929Y-123713513D01*
X128868760Y-123194557D01*
X128311612Y-122617403D01*
X127813946Y-122028633D01*
X127420224Y-121474828D01*
X127277817Y-121251767D01*
X127100678Y-120986134D01*
X126969730Y-120804205D01*
X126906101Y-120736326D01*
X126840520Y-120779842D01*
X126674728Y-120918676D01*
X126437025Y-121130276D01*
X126154112Y-121391385D01*
X125453689Y-122048104D01*
X126629011Y-123116605D01*
X126916497Y-123376474D01*
X127330876Y-123748926D01*
X127638679Y-124033879D01*
X127848011Y-124252123D01*
X127966982Y-124424448D01*
X128003696Y-124571646D01*
X127966262Y-124714506D01*
X127862787Y-124873819D01*
X127701377Y-125070376D01*
X127490140Y-125324966D01*
X127454882Y-125368847D01*
X127086726Y-125829161D01*
X126809480Y-126187660D01*
X126609257Y-126472288D01*
X126472174Y-126710990D01*
X126384345Y-126931708D01*
X126331885Y-127162389D01*
X126300910Y-127430975D01*
X126277535Y-127765411D01*
X126260756Y-128049225D01*
X126250322Y-128367733D01*
X126260761Y-128571973D01*
X126294588Y-128694815D01*
X126354317Y-128769135D01*
X126437608Y-128878553D01*
X126402575Y-129040891D01*
X126369513Y-129091316D01*
X126217055Y-129187405D01*
X126053379Y-129169447D01*
X125935756Y-129057563D01*
X125921458Y-128871873D01*
X125924025Y-128723137D01*
X125883231Y-128460774D01*
X125806147Y-128155367D01*
X125789935Y-128101568D01*
X125702986Y-127836375D01*
X125630504Y-127696272D01*
X125547073Y-127647882D01*
X125427280Y-127657832D01*
X125303997Y-127705797D01*
X125163368Y-127854322D01*
X125018668Y-128132838D01*
X124946693Y-128302588D01*
X124836442Y-128589624D01*
X124767610Y-128804663D01*
X124705945Y-128937138D01*
X124562770Y-129020574D01*
X124403207Y-128971490D01*
X124278530Y-128791289D01*
X124265509Y-128753776D01*
X124255636Y-128615531D01*
X124364615Y-128551335D01*
X124417100Y-128528914D01*
X124515298Y-128394672D01*
X124576468Y-128124063D01*
X124614823Y-127802647D01*
X124619423Y-127585522D01*
X124583916Y-127436938D01*
X124503878Y-127307114D01*
X124497772Y-127299119D01*
X124419001Y-127220156D01*
X124312358Y-127188569D01*
X124131997Y-127200645D01*
X123832070Y-127252666D01*
X123824332Y-127254131D01*
X123498437Y-127330123D01*
X123310400Y-127413265D01*
X123229460Y-127517053D01*
X123229306Y-127517535D01*
X123116075Y-127648936D01*
X122941757Y-127665684D01*
X122775573Y-127561065D01*
X122716796Y-127386402D01*
X122799424Y-127221449D01*
X123000852Y-127113783D01*
X123145518Y-127062203D01*
X123404027Y-126944049D01*
X123690013Y-126793969D01*
X123721649Y-126776095D01*
X123990304Y-126604660D01*
X124135627Y-126457435D01*
X124190064Y-126302532D01*
X124194575Y-126229048D01*
X124159708Y-126106966D01*
X124036512Y-125996939D01*
X123790712Y-125861077D01*
X123617661Y-125782397D01*
X123330149Y-125683847D01*
X123108148Y-125645334D01*
X123103123Y-125645327D01*
X122925120Y-125634702D01*
X122851333Y-125609925D01*
X122846374Y-125581251D01*
X122804131Y-125451508D01*
X122806030Y-125343449D01*
X122899525Y-125185903D01*
X122989542Y-125106690D01*
X123084652Y-125100340D01*
X123221894Y-125210696D01*
X123259529Y-125242956D01*
X123383584Y-125312635D01*
X123564825Y-125357608D01*
X123840619Y-125384809D01*
X124248333Y-125401172D01*
X124687367Y-125402141D01*
X125127755Y-125372817D01*
X125433666Y-125312264D01*
X125609274Y-125237718D01*
X125861485Y-125098807D01*
X126121498Y-124931759D01*
X126350129Y-124763749D01*
X126508192Y-124621953D01*
X126556501Y-124533548D01*
X126538418Y-124514241D01*
X126408758Y-124407258D01*
X126171305Y-124222910D01*
X125845874Y-123976281D01*
X125452279Y-123682454D01*
X125010333Y-123356513D01*
X124793641Y-123196755D01*
X124376494Y-122884007D01*
X124019951Y-122609738D01*
X123743198Y-122389089D01*
X123565422Y-122237200D01*
X123505808Y-122169213D01*
X123521348Y-122141451D01*
X123620082Y-121994098D01*
X123797124Y-121740838D01*
X124038044Y-121402034D01*
X124328412Y-120998048D01*
X124653798Y-120549242D01*
X124818550Y-120322739D01*
X125132381Y-119890208D01*
X125406535Y-119510960D01*
X125625975Y-119205870D01*
X125775665Y-118995813D01*
X125840569Y-118901664D01*
X125841278Y-118877370D01*
X125791187Y-118722597D01*
X125675964Y-118451031D01*
X125506167Y-118085714D01*
X125292359Y-117649688D01*
X125045099Y-117165997D01*
X124191374Y-115527667D01*
X124325365Y-113375401D01*
X124355796Y-112872034D01*
X124386053Y-112335190D01*
X124409535Y-111875956D01*
X124425163Y-111517173D01*
X124431858Y-111281681D01*
X124428540Y-111192318D01*
X124419973Y-111196171D01*
X124341666Y-111294848D01*
X124197677Y-111504928D01*
X124004787Y-111801400D01*
X123779777Y-112159251D01*
X123707542Y-112275822D01*
X123490273Y-112625683D01*
X123311348Y-112912657D01*
X123187665Y-113109692D01*
X123136119Y-113189740D01*
X123118678Y-113192591D01*
X122971036Y-113182638D01*
X122698742Y-113151524D01*
X122332090Y-113102911D01*
X121901371Y-113040463D01*
X121749508Y-113017853D01*
X121310100Y-112955294D01*
X120927926Y-112904941D01*
X120639673Y-112871470D01*
X120482023Y-112859556D01*
X120287910Y-112896719D01*
X120006909Y-112996566D01*
X119682410Y-113138794D01*
X119354845Y-113303095D01*
X119064647Y-113469162D01*
X118852249Y-113616690D01*
X118758084Y-113725371D01*
X118708506Y-113820269D01*
X118560501Y-113861999D01*
X118558478Y-113861599D01*
X118443572Y-113782145D01*
X118380195Y-113643544D01*
X118383322Y-113511904D01*
X118467928Y-113453334D01*
X118511058Y-113445036D01*
X118671566Y-113347131D01*
X118859032Y-113174379D01*
X119033372Y-112971572D01*
X119154503Y-112783506D01*
X119182341Y-112654973D01*
X119073027Y-112575821D01*
X118853043Y-112529832D01*
X118578951Y-112519736D01*
X118307057Y-112547579D01*
X118093666Y-112615408D01*
X117968616Y-112651483D01*
X117828416Y-112581799D01*
X117772630Y-112382892D01*
X117772683Y-112377904D01*
X117844869Y-112268154D01*
X117996077Y-112218289D01*
X118141898Y-112257069D01*
X118152962Y-112264236D01*
X118300294Y-112267074D01*
X118517383Y-112196602D01*
X118748062Y-112080482D01*
X118936163Y-111946372D01*
X119025517Y-111821933D01*
X118992544Y-111665339D01*
X118868692Y-111450698D01*
X118694619Y-111233564D01*
X118511843Y-111065482D01*
X118361882Y-110998000D01*
X118277707Y-110989579D01*
X118149243Y-110894820D01*
X118161117Y-110709307D01*
X118197684Y-110632656D01*
X118261616Y-110590324D01*
X118373288Y-110617950D01*
X118562995Y-110724629D01*
X118861032Y-110919458D01*
X119197921Y-111124522D01*
X119448447Y-111219712D01*
X119608658Y-111189024D01*
X119693687Y-111029241D01*
X119718666Y-110737146D01*
X119713850Y-110603548D01*
X119676731Y-110334171D01*
X119614953Y-110152298D01*
X119555255Y-110009464D01*
X119609262Y-109888204D01*
X119636169Y-109864694D01*
X119789071Y-109827678D01*
X119918257Y-109919248D01*
X119972666Y-110108457D01*
X119996588Y-110244869D01*
X120091170Y-110514584D01*
X120234355Y-110836566D01*
X120401006Y-111159470D01*
X120565986Y-111431949D01*
X120704160Y-111602658D01*
X120782954Y-111649045D01*
X120992447Y-111736998D01*
X121282417Y-111841338D01*
X121612942Y-111949649D01*
X121944101Y-112049515D01*
X122235973Y-112128521D01*
X122448636Y-112174250D01*
X122542169Y-112174288D01*
X122595008Y-112104961D01*
X122734747Y-111921494D01*
X122944496Y-111646062D01*
X123207628Y-111300499D01*
X123507517Y-110906638D01*
X124447342Y-109672276D01*
X124322278Y-108714475D01*
X124315887Y-108665369D01*
X124265562Y-108251626D01*
X124241474Y-107961145D01*
X124243821Y-107753827D01*
X124272799Y-107589575D01*
X124328607Y-107428290D01*
X124344865Y-107385398D01*
X124426683Y-107084085D01*
X124460000Y-106805287D01*
X124460051Y-106794407D01*
X124489908Y-106587649D01*
X124565833Y-106510637D01*
X124569249Y-106510178D01*
X124641735Y-106424612D01*
X124755059Y-106212282D01*
X124894368Y-105903629D01*
X125044807Y-105529092D01*
X125135956Y-105295790D01*
X125342888Y-104832520D01*
X125531208Y-104533552D01*
X125711762Y-104398639D01*
X125895396Y-104427539D01*
G36*
X187413310Y-128948130D02*
G01*
X187442944Y-128977000D01*
X187476293Y-129030369D01*
X187514984Y-129108200D01*
X187537912Y-129155136D01*
X187563123Y-129201243D01*
X187583731Y-129232905D01*
X187597070Y-129245656D01*
X187611030Y-129256906D01*
X187617379Y-129290106D01*
X187617856Y-129298687D01*
X187626004Y-129339579D01*
X187640982Y-129381798D01*
X187650156Y-129404398D01*
X187656653Y-129430671D01*
X187659095Y-129463072D01*
X187657900Y-129507974D01*
X187653489Y-129571748D01*
X187650395Y-129618997D01*
X187648666Y-129668246D01*
X187649221Y-129703248D01*
X187652111Y-129718482D01*
X187652119Y-129718489D01*
X187666536Y-129727270D01*
X187698738Y-129745129D01*
X187743962Y-129769472D01*
X187797448Y-129797703D01*
X187933345Y-129868792D01*
X188003770Y-129758371D01*
X188008112Y-129751517D01*
X188043771Y-129690604D01*
X188066347Y-129642520D01*
X188074248Y-129610606D01*
X188073115Y-129593538D01*
X188064991Y-129550432D01*
X188050975Y-129500127D01*
X188033371Y-129449017D01*
X188014483Y-129403496D01*
X187996615Y-129369956D01*
X187982070Y-129354792D01*
X187972457Y-129350056D01*
X187962679Y-129332096D01*
X187970547Y-129312634D01*
X187993964Y-129301134D01*
X188015069Y-129303779D01*
X188030565Y-129326350D01*
X188037534Y-129343913D01*
X188059873Y-129381085D01*
X188088007Y-129413866D01*
X188116212Y-129436149D01*
X188138767Y-129441826D01*
X188139545Y-129441617D01*
X188154331Y-129432301D01*
X188162076Y-129410675D01*
X188165176Y-129370243D01*
X188165672Y-129348178D01*
X188165747Y-129305843D01*
X188164663Y-129276273D01*
X188164517Y-129270944D01*
X188174085Y-129246782D01*
X188194824Y-129236958D01*
X188217711Y-129246530D01*
X188225240Y-129258657D01*
X188219225Y-129283141D01*
X188213722Y-129303780D01*
X188216625Y-129340960D01*
X188228212Y-129381074D01*
X188245541Y-129414677D01*
X188265673Y-129432326D01*
X188268464Y-129433000D01*
X188296235Y-129429215D01*
X188331663Y-129413735D01*
X188366809Y-129391479D01*
X188393728Y-129367368D01*
X188404478Y-129346325D01*
X188408594Y-129332952D01*
X188430299Y-129324100D01*
X188450760Y-129327707D01*
X188462254Y-129343914D01*
X188453510Y-129370940D01*
X188424694Y-129406352D01*
X188392369Y-129440287D01*
X188362215Y-129479205D01*
X188348787Y-129510641D01*
X188349706Y-129538797D01*
X188352447Y-129548136D01*
X188359653Y-129559407D01*
X188374705Y-129564548D01*
X188403423Y-129564864D01*
X188451626Y-129561660D01*
X188484833Y-129559504D01*
X188522816Y-129559194D01*
X188543761Y-129563451D01*
X188552724Y-129572834D01*
X188554323Y-129578218D01*
X188549990Y-129603098D01*
X188531121Y-129618383D01*
X188506142Y-129616222D01*
X188499143Y-129614370D01*
X188468821Y-129616210D01*
X188424920Y-129625384D01*
X188374328Y-129640003D01*
X188323934Y-129658180D01*
X188280628Y-129678026D01*
X188275633Y-129682004D01*
X188255012Y-129702470D01*
X188222837Y-129736596D01*
X188182420Y-129780667D01*
X188137074Y-129830970D01*
X188090114Y-129883791D01*
X188044851Y-129935416D01*
X188004600Y-129982131D01*
X187972673Y-130020222D01*
X187952384Y-130045975D01*
X187952197Y-130046078D01*
X187938931Y-130040956D01*
X187908275Y-130025695D01*
X187864551Y-130002523D01*
X187812083Y-129973667D01*
X187807535Y-129971130D01*
X187755527Y-129942606D01*
X187712534Y-129919906D01*
X187682911Y-129905274D01*
X187671012Y-129900954D01*
X187670727Y-129906417D01*
X187671960Y-129933560D01*
X187675052Y-129980233D01*
X187679745Y-130042878D01*
X187685780Y-130117940D01*
X187692899Y-130201862D01*
X187692984Y-130202839D01*
X187701936Y-130311382D01*
X187708035Y-130400471D01*
X187711458Y-130475824D01*
X187712378Y-130543160D01*
X187710971Y-130608195D01*
X187707411Y-130676650D01*
X187705982Y-130699527D01*
X187702419Y-130760832D01*
X187699909Y-130810703D01*
X187698669Y-130844505D01*
X187698917Y-130857601D01*
X187699515Y-130857436D01*
X187712903Y-130847023D01*
X187741619Y-130822530D01*
X187782808Y-130786453D01*
X187833615Y-130741288D01*
X187891185Y-130689530D01*
X187902965Y-130678897D01*
X187959878Y-130627903D01*
X188009816Y-130583761D01*
X188049830Y-130549038D01*
X188076972Y-130526297D01*
X188088292Y-130518104D01*
X188090224Y-130521783D01*
X188095513Y-130545697D01*
X188102524Y-130588172D01*
X188110573Y-130644901D01*
X188118977Y-130711575D01*
X188123474Y-130749826D01*
X188132880Y-130829814D01*
X188140831Y-130886767D01*
X188149070Y-130922168D01*
X188159338Y-130937498D01*
X188173377Y-130934241D01*
X188192930Y-130913877D01*
X188219737Y-130877889D01*
X188255542Y-130827758D01*
X188353700Y-130691608D01*
X188353700Y-130560131D01*
X188353631Y-130544894D01*
X188351323Y-130478609D01*
X188346015Y-130430301D01*
X188338074Y-130403632D01*
X188336492Y-130401045D01*
X188329497Y-130378616D01*
X188342942Y-130358115D01*
X188360696Y-130347270D01*
X188386489Y-130348385D01*
X188405173Y-130364694D01*
X188407978Y-130391672D01*
X188407255Y-130410878D01*
X188412711Y-130448956D01*
X188423835Y-130493438D01*
X188434837Y-130527615D01*
X188446971Y-130554183D01*
X188460593Y-130566006D01*
X188479885Y-130568700D01*
X188495673Y-130566838D01*
X188511789Y-130556435D01*
X188527687Y-130532297D01*
X188547726Y-130489325D01*
X188564716Y-130447628D01*
X188577439Y-130410947D01*
X188582302Y-130389206D01*
X188583057Y-130383549D01*
X188597720Y-130366461D01*
X188622197Y-130360544D01*
X188644730Y-130369509D01*
X188653593Y-130381306D01*
X188655731Y-130410124D01*
X188633713Y-130439664D01*
X188620888Y-130456249D01*
X188607785Y-130496065D01*
X188604282Y-130543250D01*
X188610729Y-130587710D01*
X188627477Y-130619347D01*
X188630251Y-130622075D01*
X188644810Y-130633658D01*
X188661505Y-130637600D01*
X188687794Y-130634226D01*
X188731134Y-130623859D01*
X188765346Y-130614069D01*
X188802035Y-130597818D01*
X188817715Y-130579935D01*
X188825284Y-130565471D01*
X188846202Y-130556845D01*
X188871860Y-130571239D01*
X188885620Y-130596868D01*
X188883089Y-130623337D01*
X188864875Y-130639602D01*
X188842810Y-130648466D01*
X188806133Y-130665441D01*
X188762846Y-130686828D01*
X188736246Y-130701400D01*
X188691487Y-130734683D01*
X188671706Y-130766468D01*
X188677079Y-130796536D01*
X188678549Y-130798486D01*
X188699660Y-130813477D01*
X188735521Y-130831207D01*
X188777757Y-130848243D01*
X188817992Y-130861155D01*
X188847849Y-130866509D01*
X188861259Y-130868520D01*
X188882059Y-130884377D01*
X188884869Y-130908751D01*
X188867144Y-130932883D01*
X188864041Y-130935093D01*
X188843564Y-130942646D01*
X188822931Y-130930043D01*
X188820263Y-130927934D01*
X188790281Y-130916016D01*
X188743143Y-130907253D01*
X188685859Y-130902064D01*
X188625441Y-130900868D01*
X188568900Y-130904084D01*
X188523249Y-130912132D01*
X188506657Y-130917608D01*
X188483450Y-130928680D01*
X188456893Y-130946058D01*
X188424080Y-130972089D01*
X188382106Y-131009121D01*
X188328065Y-131059500D01*
X188259052Y-131125576D01*
X188055250Y-131322109D01*
X188039662Y-131158129D01*
X188038788Y-131148971D01*
X188032716Y-131087084D01*
X188027286Y-131034592D01*
X188023064Y-130996795D01*
X188020612Y-130978991D01*
X188020033Y-130978175D01*
X188007049Y-130983572D01*
X187979949Y-131003325D01*
X187942251Y-131034694D01*
X187897475Y-131074936D01*
X187777800Y-131186039D01*
X187851846Y-131312344D01*
X187899141Y-131391556D01*
X187962330Y-131491122D01*
X188020488Y-131573490D01*
X188076659Y-131642288D01*
X188133883Y-131701145D01*
X188195204Y-131753689D01*
X188263663Y-131803550D01*
X188283675Y-131816812D01*
X188367416Y-131866592D01*
X188459007Y-131913771D01*
X188549275Y-131953860D01*
X188629045Y-131982369D01*
X188670149Y-131993173D01*
X188800726Y-132010823D01*
X188935949Y-132005852D01*
X189072029Y-131978911D01*
X189205176Y-131930651D01*
X189331600Y-131861721D01*
X189337237Y-131857981D01*
X189385601Y-131821569D01*
X189444138Y-131771931D01*
X189507225Y-131714340D01*
X189569239Y-131654071D01*
X189624556Y-131596400D01*
X189667554Y-131546600D01*
X189702790Y-131502150D01*
X189673517Y-131552950D01*
X189613546Y-131647309D01*
X189509276Y-131777106D01*
X189391298Y-131888765D01*
X189261703Y-131980877D01*
X189122582Y-132052030D01*
X188976028Y-132100813D01*
X188824133Y-132125816D01*
X188780897Y-132127808D01*
X188691482Y-132125588D01*
X188593428Y-132116921D01*
X188496598Y-132102799D01*
X188410850Y-132084214D01*
X188339512Y-132060837D01*
X188254379Y-132025697D01*
X188165824Y-131983371D01*
X188082406Y-131937960D01*
X188012686Y-131893560D01*
X187945140Y-131841026D01*
X187859314Y-131763183D01*
X187775742Y-131676610D01*
X187701092Y-131588294D01*
X187642034Y-131505224D01*
X187620673Y-131471764D01*
X187594102Y-131431920D01*
X187574460Y-131404630D01*
X187564916Y-131394448D01*
X187555078Y-131400976D01*
X187530210Y-131421801D01*
X187494554Y-131453541D01*
X187452117Y-131492707D01*
X187347054Y-131591215D01*
X187523352Y-131751490D01*
X187566475Y-131790471D01*
X187628632Y-131846338D01*
X187674802Y-131889081D01*
X187706202Y-131921818D01*
X187724048Y-131947667D01*
X187729555Y-131969746D01*
X187723940Y-131991175D01*
X187708419Y-132015072D01*
X187684207Y-132044556D01*
X187652522Y-132082744D01*
X187647233Y-132089327D01*
X187592009Y-132158374D01*
X187550422Y-132212149D01*
X187520389Y-132254843D01*
X187499827Y-132290648D01*
X187486652Y-132323756D01*
X187478783Y-132358358D01*
X187474137Y-132398646D01*
X187470631Y-132448811D01*
X187468114Y-132491383D01*
X187466549Y-132539159D01*
X187468115Y-132569795D01*
X187473189Y-132588222D01*
X187482148Y-132599370D01*
X187494642Y-132615782D01*
X187489387Y-132640133D01*
X187484427Y-132647697D01*
X187461559Y-132662110D01*
X187437007Y-132659417D01*
X187419364Y-132642634D01*
X187417219Y-132614780D01*
X187417604Y-132592470D01*
X187411485Y-132553116D01*
X187399923Y-132507305D01*
X187397491Y-132499235D01*
X187384448Y-132459456D01*
X187373576Y-132438440D01*
X187361062Y-132431182D01*
X187343093Y-132432674D01*
X187324600Y-132439869D01*
X187303506Y-132462148D01*
X187281801Y-132503925D01*
X187271004Y-132529388D01*
X187254467Y-132572443D01*
X187244142Y-132604699D01*
X187234892Y-132624570D01*
X187213416Y-132637086D01*
X187189482Y-132629723D01*
X187170780Y-132602693D01*
X187168827Y-132597066D01*
X187167346Y-132576329D01*
X187183693Y-132566700D01*
X187191566Y-132563337D01*
X187206295Y-132543200D01*
X187215471Y-132502609D01*
X187221224Y-132454397D01*
X187221914Y-132421828D01*
X187216588Y-132399540D01*
X187204582Y-132380067D01*
X187203666Y-132378867D01*
X187191851Y-132367023D01*
X187175854Y-132362285D01*
X187148800Y-132364096D01*
X187103811Y-132371899D01*
X187102650Y-132372119D01*
X187053766Y-132383518D01*
X187025561Y-132395989D01*
X187013420Y-132411557D01*
X187013396Y-132411630D01*
X186996412Y-132431340D01*
X186970264Y-132433852D01*
X186945336Y-132418159D01*
X186936520Y-132391960D01*
X186948914Y-132367217D01*
X186979128Y-132351067D01*
X187000828Y-132343330D01*
X187039605Y-132325607D01*
X187082502Y-132303095D01*
X187087248Y-132300414D01*
X187127546Y-132274699D01*
X187149345Y-132252615D01*
X187157510Y-132229379D01*
X187158187Y-132218357D01*
X187152957Y-132200044D01*
X187134477Y-132183540D01*
X187097607Y-132163161D01*
X187071650Y-132151359D01*
X187028523Y-132136577D01*
X186995223Y-132130800D01*
X186994469Y-132130798D01*
X186967769Y-132129205D01*
X186956700Y-132125488D01*
X186955957Y-132121187D01*
X186949620Y-132101726D01*
X186949905Y-132085517D01*
X186963929Y-132061885D01*
X186977432Y-132050003D01*
X186991698Y-132049050D01*
X187012285Y-132065604D01*
X187017930Y-132070443D01*
X187036538Y-132080895D01*
X187063724Y-132087641D01*
X187105093Y-132091721D01*
X187166250Y-132094175D01*
X187232106Y-132094321D01*
X187298164Y-132089922D01*
X187344050Y-132080839D01*
X187370392Y-132069657D01*
X187408223Y-132048821D01*
X187447225Y-132023763D01*
X187481520Y-131998562D01*
X187505229Y-131977292D01*
X187512476Y-131964032D01*
X187509763Y-131961136D01*
X187490314Y-131945088D01*
X187454696Y-131917436D01*
X187405882Y-131880442D01*
X187346842Y-131836368D01*
X187280550Y-131787476D01*
X187248047Y-131763513D01*
X187185475Y-131716601D01*
X187131993Y-131675460D01*
X187090480Y-131642363D01*
X187063814Y-131619580D01*
X187054872Y-131609381D01*
X187057203Y-131605217D01*
X187072013Y-131583114D01*
X187098569Y-131545125D01*
X187134707Y-131494305D01*
X187178262Y-131433707D01*
X187227070Y-131366386D01*
X187251783Y-131332410D01*
X187298858Y-131267531D01*
X187339981Y-131210643D01*
X187372897Y-131164880D01*
X187395350Y-131133371D01*
X187405086Y-131119249D01*
X187405192Y-131115605D01*
X187397679Y-131092389D01*
X187380395Y-131051654D01*
X187354926Y-130996857D01*
X187322854Y-130931453D01*
X187285765Y-130858899D01*
X187157707Y-130613150D01*
X187177805Y-130290310D01*
X187182370Y-130214805D01*
X187186908Y-130134278D01*
X187190431Y-130065393D01*
X187192775Y-130011575D01*
X187193779Y-129976252D01*
X187193282Y-129962847D01*
X187191996Y-129963425D01*
X187180250Y-129978227D01*
X187158652Y-130009739D01*
X187129719Y-130054209D01*
X187095967Y-130107887D01*
X187085132Y-130125373D01*
X187052541Y-130177852D01*
X187025703Y-130220898D01*
X187007150Y-130250453D01*
X186999418Y-130262461D01*
X186996802Y-130262888D01*
X186974656Y-130261395D01*
X186933812Y-130256728D01*
X186878814Y-130249436D01*
X186814206Y-130240069D01*
X186791427Y-130236677D01*
X186725515Y-130227294D01*
X186668189Y-130219741D01*
X186624951Y-130214720D01*
X186601304Y-130212933D01*
X186572187Y-130218507D01*
X186530037Y-130233484D01*
X186481362Y-130254819D01*
X186432227Y-130279464D01*
X186388698Y-130304374D01*
X186356838Y-130326503D01*
X186342713Y-130342805D01*
X186335276Y-130357040D01*
X186313076Y-130363299D01*
X186312772Y-130363239D01*
X186295536Y-130351321D01*
X186286030Y-130330531D01*
X186286499Y-130310785D01*
X186299190Y-130302000D01*
X186305659Y-130300755D01*
X186329735Y-130286069D01*
X186357855Y-130260156D01*
X186384006Y-130229735D01*
X186402176Y-130201525D01*
X186406352Y-130182245D01*
X186389955Y-130170373D01*
X186356957Y-130163474D01*
X186315843Y-130161960D01*
X186275059Y-130166136D01*
X186243050Y-130176311D01*
X186224293Y-130181722D01*
X186203263Y-130171269D01*
X186194895Y-130141433D01*
X186194903Y-130140685D01*
X186205731Y-130124223D01*
X186228412Y-130116743D01*
X186250285Y-130122560D01*
X186251945Y-130123635D01*
X186274045Y-130124061D01*
X186306608Y-130113490D01*
X186341210Y-130096072D01*
X186369425Y-130075955D01*
X186382828Y-130057289D01*
X186377882Y-130033800D01*
X186359304Y-130001604D01*
X186333193Y-129969034D01*
X186305777Y-129943822D01*
X186283283Y-129933700D01*
X186270657Y-129932436D01*
X186251387Y-129918223D01*
X186253168Y-129890396D01*
X186258653Y-129878898D01*
X186268243Y-129872548D01*
X186284994Y-129876692D01*
X186313450Y-129892694D01*
X186358155Y-129921918D01*
X186408689Y-129952678D01*
X186446268Y-129966956D01*
X186470299Y-129962353D01*
X186483054Y-129938386D01*
X186486800Y-129894571D01*
X186486078Y-129874532D01*
X186480510Y-129834125D01*
X186471244Y-129806844D01*
X186462289Y-129785419D01*
X186470390Y-129767230D01*
X186474426Y-129763704D01*
X186497361Y-129758151D01*
X186516739Y-129771887D01*
X186524900Y-129800268D01*
X186528489Y-129820730D01*
X186542676Y-129861187D01*
X186564154Y-129909484D01*
X186589151Y-129957920D01*
X186613898Y-129998792D01*
X186634624Y-130024398D01*
X186646444Y-130031356D01*
X186677868Y-130044549D01*
X186721363Y-130060200D01*
X186770942Y-130076447D01*
X186820616Y-130091427D01*
X186864396Y-130103278D01*
X186896296Y-130110137D01*
X186910326Y-130110143D01*
X186918252Y-130099744D01*
X186939213Y-130072224D01*
X186970675Y-130030909D01*
X187010145Y-129979074D01*
X187055128Y-129919995D01*
X187196102Y-129734841D01*
X187177342Y-129591171D01*
X187176384Y-129583805D01*
X187168835Y-129521743D01*
X187165222Y-129478171D01*
X187165574Y-129447074D01*
X187169920Y-129422436D01*
X187178292Y-129398243D01*
X187180730Y-129391809D01*
X187193003Y-129346612D01*
X187198000Y-129304792D01*
X187198008Y-129303160D01*
X187202487Y-129272147D01*
X187213875Y-129260595D01*
X187214388Y-129260526D01*
X187225261Y-129247691D01*
X187242259Y-129215842D01*
X187263156Y-129169544D01*
X187285722Y-129113363D01*
X187299394Y-129078368D01*
X187330434Y-129008878D01*
X187358682Y-128964032D01*
X187385765Y-128943795D01*
X187413310Y-128948130D01*
G37*
X187413310Y-128948130D02*
X187442944Y-128977000D01*
X187476293Y-129030369D01*
X187514984Y-129108200D01*
X187537912Y-129155136D01*
X187563123Y-129201243D01*
X187583731Y-129232905D01*
X187597070Y-129245656D01*
X187611030Y-129256906D01*
X187617379Y-129290106D01*
X187617856Y-129298687D01*
X187626004Y-129339579D01*
X187640982Y-129381798D01*
X187650156Y-129404398D01*
X187656653Y-129430671D01*
X187659095Y-129463072D01*
X187657900Y-129507974D01*
X187653489Y-129571748D01*
X187650395Y-129618997D01*
X187648666Y-129668246D01*
X187649221Y-129703248D01*
X187652111Y-129718482D01*
X187652119Y-129718489D01*
X187666536Y-129727270D01*
X187698738Y-129745129D01*
X187743962Y-129769472D01*
X187797448Y-129797703D01*
X187933345Y-129868792D01*
X188003770Y-129758371D01*
X188008112Y-129751517D01*
X188043771Y-129690604D01*
X188066347Y-129642520D01*
X188074248Y-129610606D01*
X188073115Y-129593538D01*
X188064991Y-129550432D01*
X188050975Y-129500127D01*
X188033371Y-129449017D01*
X188014483Y-129403496D01*
X187996615Y-129369956D01*
X187982070Y-129354792D01*
X187972457Y-129350056D01*
X187962679Y-129332096D01*
X187970547Y-129312634D01*
X187993964Y-129301134D01*
X188015069Y-129303779D01*
X188030565Y-129326350D01*
X188037534Y-129343913D01*
X188059873Y-129381085D01*
X188088007Y-129413866D01*
X188116212Y-129436149D01*
X188138767Y-129441826D01*
X188139545Y-129441617D01*
X188154331Y-129432301D01*
X188162076Y-129410675D01*
X188165176Y-129370243D01*
X188165672Y-129348178D01*
X188165747Y-129305843D01*
X188164663Y-129276273D01*
X188164517Y-129270944D01*
X188174085Y-129246782D01*
X188194824Y-129236958D01*
X188217711Y-129246530D01*
X188225240Y-129258657D01*
X188219225Y-129283141D01*
X188213722Y-129303780D01*
X188216625Y-129340960D01*
X188228212Y-129381074D01*
X188245541Y-129414677D01*
X188265673Y-129432326D01*
X188268464Y-129433000D01*
X188296235Y-129429215D01*
X188331663Y-129413735D01*
X188366809Y-129391479D01*
X188393728Y-129367368D01*
X188404478Y-129346325D01*
X188408594Y-129332952D01*
X188430299Y-129324100D01*
X188450760Y-129327707D01*
X188462254Y-129343914D01*
X188453510Y-129370940D01*
X188424694Y-129406352D01*
X188392369Y-129440287D01*
X188362215Y-129479205D01*
X188348787Y-129510641D01*
X188349706Y-129538797D01*
X188352447Y-129548136D01*
X188359653Y-129559407D01*
X188374705Y-129564548D01*
X188403423Y-129564864D01*
X188451626Y-129561660D01*
X188484833Y-129559504D01*
X188522816Y-129559194D01*
X188543761Y-129563451D01*
X188552724Y-129572834D01*
X188554323Y-129578218D01*
X188549990Y-129603098D01*
X188531121Y-129618383D01*
X188506142Y-129616222D01*
X188499143Y-129614370D01*
X188468821Y-129616210D01*
X188424920Y-129625384D01*
X188374328Y-129640003D01*
X188323934Y-129658180D01*
X188280628Y-129678026D01*
X188275633Y-129682004D01*
X188255012Y-129702470D01*
X188222837Y-129736596D01*
X188182420Y-129780667D01*
X188137074Y-129830970D01*
X188090114Y-129883791D01*
X188044851Y-129935416D01*
X188004600Y-129982131D01*
X187972673Y-130020222D01*
X187952384Y-130045975D01*
X187952197Y-130046078D01*
X187938931Y-130040956D01*
X187908275Y-130025695D01*
X187864551Y-130002523D01*
X187812083Y-129973667D01*
X187807535Y-129971130D01*
X187755527Y-129942606D01*
X187712534Y-129919906D01*
X187682911Y-129905274D01*
X187671012Y-129900954D01*
X187670727Y-129906417D01*
X187671960Y-129933560D01*
X187675052Y-129980233D01*
X187679745Y-130042878D01*
X187685780Y-130117940D01*
X187692899Y-130201862D01*
X187692984Y-130202839D01*
X187701936Y-130311382D01*
X187708035Y-130400471D01*
X187711458Y-130475824D01*
X187712378Y-130543160D01*
X187710971Y-130608195D01*
X187707411Y-130676650D01*
X187705982Y-130699527D01*
X187702419Y-130760832D01*
X187699909Y-130810703D01*
X187698669Y-130844505D01*
X187698917Y-130857601D01*
X187699515Y-130857436D01*
X187712903Y-130847023D01*
X187741619Y-130822530D01*
X187782808Y-130786453D01*
X187833615Y-130741288D01*
X187891185Y-130689530D01*
X187902965Y-130678897D01*
X187959878Y-130627903D01*
X188009816Y-130583761D01*
X188049830Y-130549038D01*
X188076972Y-130526297D01*
X188088292Y-130518104D01*
X188090224Y-130521783D01*
X188095513Y-130545697D01*
X188102524Y-130588172D01*
X188110573Y-130644901D01*
X188118977Y-130711575D01*
X188123474Y-130749826D01*
X188132880Y-130829814D01*
X188140831Y-130886767D01*
X188149070Y-130922168D01*
X188159338Y-130937498D01*
X188173377Y-130934241D01*
X188192930Y-130913877D01*
X188219737Y-130877889D01*
X188255542Y-130827758D01*
X188353700Y-130691608D01*
X188353700Y-130560131D01*
X188353631Y-130544894D01*
X188351323Y-130478609D01*
X188346015Y-130430301D01*
X188338074Y-130403632D01*
X188336492Y-130401045D01*
X188329497Y-130378616D01*
X188342942Y-130358115D01*
X188360696Y-130347270D01*
X188386489Y-130348385D01*
X188405173Y-130364694D01*
X188407978Y-130391672D01*
X188407255Y-130410878D01*
X188412711Y-130448956D01*
X188423835Y-130493438D01*
X188434837Y-130527615D01*
X188446971Y-130554183D01*
X188460593Y-130566006D01*
X188479885Y-130568700D01*
X188495673Y-130566838D01*
X188511789Y-130556435D01*
X188527687Y-130532297D01*
X188547726Y-130489325D01*
X188564716Y-130447628D01*
X188577439Y-130410947D01*
X188582302Y-130389206D01*
X188583057Y-130383549D01*
X188597720Y-130366461D01*
X188622197Y-130360544D01*
X188644730Y-130369509D01*
X188653593Y-130381306D01*
X188655731Y-130410124D01*
X188633713Y-130439664D01*
X188620888Y-130456249D01*
X188607785Y-130496065D01*
X188604282Y-130543250D01*
X188610729Y-130587710D01*
X188627477Y-130619347D01*
X188630251Y-130622075D01*
X188644810Y-130633658D01*
X188661505Y-130637600D01*
X188687794Y-130634226D01*
X188731134Y-130623859D01*
X188765346Y-130614069D01*
X188802035Y-130597818D01*
X188817715Y-130579935D01*
X188825284Y-130565471D01*
X188846202Y-130556845D01*
X188871860Y-130571239D01*
X188885620Y-130596868D01*
X188883089Y-130623337D01*
X188864875Y-130639602D01*
X188842810Y-130648466D01*
X188806133Y-130665441D01*
X188762846Y-130686828D01*
X188736246Y-130701400D01*
X188691487Y-130734683D01*
X188671706Y-130766468D01*
X188677079Y-130796536D01*
X188678549Y-130798486D01*
X188699660Y-130813477D01*
X188735521Y-130831207D01*
X188777757Y-130848243D01*
X188817992Y-130861155D01*
X188847849Y-130866509D01*
X188861259Y-130868520D01*
X188882059Y-130884377D01*
X188884869Y-130908751D01*
X188867144Y-130932883D01*
X188864041Y-130935093D01*
X188843564Y-130942646D01*
X188822931Y-130930043D01*
X188820263Y-130927934D01*
X188790281Y-130916016D01*
X188743143Y-130907253D01*
X188685859Y-130902064D01*
X188625441Y-130900868D01*
X188568900Y-130904084D01*
X188523249Y-130912132D01*
X188506657Y-130917608D01*
X188483450Y-130928680D01*
X188456893Y-130946058D01*
X188424080Y-130972089D01*
X188382106Y-131009121D01*
X188328065Y-131059500D01*
X188259052Y-131125576D01*
X188055250Y-131322109D01*
X188039662Y-131158129D01*
X188038788Y-131148971D01*
X188032716Y-131087084D01*
X188027286Y-131034592D01*
X188023064Y-130996795D01*
X188020612Y-130978991D01*
X188020033Y-130978175D01*
X188007049Y-130983572D01*
X187979949Y-131003325D01*
X187942251Y-131034694D01*
X187897475Y-131074936D01*
X187777800Y-131186039D01*
X187851846Y-131312344D01*
X187899141Y-131391556D01*
X187962330Y-131491122D01*
X188020488Y-131573490D01*
X188076659Y-131642288D01*
X188133883Y-131701145D01*
X188195204Y-131753689D01*
X188263663Y-131803550D01*
X188283675Y-131816812D01*
X188367416Y-131866592D01*
X188459007Y-131913771D01*
X188549275Y-131953860D01*
X188629045Y-131982369D01*
X188670149Y-131993173D01*
X188800726Y-132010823D01*
X188935949Y-132005852D01*
X189072029Y-131978911D01*
X189205176Y-131930651D01*
X189331600Y-131861721D01*
X189337237Y-131857981D01*
X189385601Y-131821569D01*
X189444138Y-131771931D01*
X189507225Y-131714340D01*
X189569239Y-131654071D01*
X189624556Y-131596400D01*
X189667554Y-131546600D01*
X189702790Y-131502150D01*
X189673517Y-131552950D01*
X189613546Y-131647309D01*
X189509276Y-131777106D01*
X189391298Y-131888765D01*
X189261703Y-131980877D01*
X189122582Y-132052030D01*
X188976028Y-132100813D01*
X188824133Y-132125816D01*
X188780897Y-132127808D01*
X188691482Y-132125588D01*
X188593428Y-132116921D01*
X188496598Y-132102799D01*
X188410850Y-132084214D01*
X188339512Y-132060837D01*
X188254379Y-132025697D01*
X188165824Y-131983371D01*
X188082406Y-131937960D01*
X188012686Y-131893560D01*
X187945140Y-131841026D01*
X187859314Y-131763183D01*
X187775742Y-131676610D01*
X187701092Y-131588294D01*
X187642034Y-131505224D01*
X187620673Y-131471764D01*
X187594102Y-131431920D01*
X187574460Y-131404630D01*
X187564916Y-131394448D01*
X187555078Y-131400976D01*
X187530210Y-131421801D01*
X187494554Y-131453541D01*
X187452117Y-131492707D01*
X187347054Y-131591215D01*
X187523352Y-131751490D01*
X187566475Y-131790471D01*
X187628632Y-131846338D01*
X187674802Y-131889081D01*
X187706202Y-131921818D01*
X187724048Y-131947667D01*
X187729555Y-131969746D01*
X187723940Y-131991175D01*
X187708419Y-132015072D01*
X187684207Y-132044556D01*
X187652522Y-132082744D01*
X187647233Y-132089327D01*
X187592009Y-132158374D01*
X187550422Y-132212149D01*
X187520389Y-132254843D01*
X187499827Y-132290648D01*
X187486652Y-132323756D01*
X187478783Y-132358358D01*
X187474137Y-132398646D01*
X187470631Y-132448811D01*
X187468114Y-132491383D01*
X187466549Y-132539159D01*
X187468115Y-132569795D01*
X187473189Y-132588222D01*
X187482148Y-132599370D01*
X187494642Y-132615782D01*
X187489387Y-132640133D01*
X187484427Y-132647697D01*
X187461559Y-132662110D01*
X187437007Y-132659417D01*
X187419364Y-132642634D01*
X187417219Y-132614780D01*
X187417604Y-132592470D01*
X187411485Y-132553116D01*
X187399923Y-132507305D01*
X187397491Y-132499235D01*
X187384448Y-132459456D01*
X187373576Y-132438440D01*
X187361062Y-132431182D01*
X187343093Y-132432674D01*
X187324600Y-132439869D01*
X187303506Y-132462148D01*
X187281801Y-132503925D01*
X187271004Y-132529388D01*
X187254467Y-132572443D01*
X187244142Y-132604699D01*
X187234892Y-132624570D01*
X187213416Y-132637086D01*
X187189482Y-132629723D01*
X187170780Y-132602693D01*
X187168827Y-132597066D01*
X187167346Y-132576329D01*
X187183693Y-132566700D01*
X187191566Y-132563337D01*
X187206295Y-132543200D01*
X187215471Y-132502609D01*
X187221224Y-132454397D01*
X187221914Y-132421828D01*
X187216588Y-132399540D01*
X187204582Y-132380067D01*
X187203666Y-132378867D01*
X187191851Y-132367023D01*
X187175854Y-132362285D01*
X187148800Y-132364096D01*
X187103811Y-132371899D01*
X187102650Y-132372119D01*
X187053766Y-132383518D01*
X187025561Y-132395989D01*
X187013420Y-132411557D01*
X187013396Y-132411630D01*
X186996412Y-132431340D01*
X186970264Y-132433852D01*
X186945336Y-132418159D01*
X186936520Y-132391960D01*
X186948914Y-132367217D01*
X186979128Y-132351067D01*
X187000828Y-132343330D01*
X187039605Y-132325607D01*
X187082502Y-132303095D01*
X187087248Y-132300414D01*
X187127546Y-132274699D01*
X187149345Y-132252615D01*
X187157510Y-132229379D01*
X187158187Y-132218357D01*
X187152957Y-132200044D01*
X187134477Y-132183540D01*
X187097607Y-132163161D01*
X187071650Y-132151359D01*
X187028523Y-132136577D01*
X186995223Y-132130800D01*
X186994469Y-132130798D01*
X186967769Y-132129205D01*
X186956700Y-132125488D01*
X186955957Y-132121187D01*
X186949620Y-132101726D01*
X186949905Y-132085517D01*
X186963929Y-132061885D01*
X186977432Y-132050003D01*
X186991698Y-132049050D01*
X187012285Y-132065604D01*
X187017930Y-132070443D01*
X187036538Y-132080895D01*
X187063724Y-132087641D01*
X187105093Y-132091721D01*
X187166250Y-132094175D01*
X187232106Y-132094321D01*
X187298164Y-132089922D01*
X187344050Y-132080839D01*
X187370392Y-132069657D01*
X187408223Y-132048821D01*
X187447225Y-132023763D01*
X187481520Y-131998562D01*
X187505229Y-131977292D01*
X187512476Y-131964032D01*
X187509763Y-131961136D01*
X187490314Y-131945088D01*
X187454696Y-131917436D01*
X187405882Y-131880442D01*
X187346842Y-131836368D01*
X187280550Y-131787476D01*
X187248047Y-131763513D01*
X187185475Y-131716601D01*
X187131993Y-131675460D01*
X187090480Y-131642363D01*
X187063814Y-131619580D01*
X187054872Y-131609381D01*
X187057203Y-131605217D01*
X187072013Y-131583114D01*
X187098569Y-131545125D01*
X187134707Y-131494305D01*
X187178262Y-131433707D01*
X187227070Y-131366386D01*
X187251783Y-131332410D01*
X187298858Y-131267531D01*
X187339981Y-131210643D01*
X187372897Y-131164880D01*
X187395350Y-131133371D01*
X187405086Y-131119249D01*
X187405192Y-131115605D01*
X187397679Y-131092389D01*
X187380395Y-131051654D01*
X187354926Y-130996857D01*
X187322854Y-130931453D01*
X187285765Y-130858899D01*
X187157707Y-130613150D01*
X187177805Y-130290310D01*
X187182370Y-130214805D01*
X187186908Y-130134278D01*
X187190431Y-130065393D01*
X187192775Y-130011575D01*
X187193779Y-129976252D01*
X187193282Y-129962847D01*
X187191996Y-129963425D01*
X187180250Y-129978227D01*
X187158652Y-130009739D01*
X187129719Y-130054209D01*
X187095967Y-130107887D01*
X187085132Y-130125373D01*
X187052541Y-130177852D01*
X187025703Y-130220898D01*
X187007150Y-130250453D01*
X186999418Y-130262461D01*
X186996802Y-130262888D01*
X186974656Y-130261395D01*
X186933812Y-130256728D01*
X186878814Y-130249436D01*
X186814206Y-130240069D01*
X186791427Y-130236677D01*
X186725515Y-130227294D01*
X186668189Y-130219741D01*
X186624951Y-130214720D01*
X186601304Y-130212933D01*
X186572187Y-130218507D01*
X186530037Y-130233484D01*
X186481362Y-130254819D01*
X186432227Y-130279464D01*
X186388698Y-130304374D01*
X186356838Y-130326503D01*
X186342713Y-130342805D01*
X186335276Y-130357040D01*
X186313076Y-130363299D01*
X186312772Y-130363239D01*
X186295536Y-130351321D01*
X186286030Y-130330531D01*
X186286499Y-130310785D01*
X186299190Y-130302000D01*
X186305659Y-130300755D01*
X186329735Y-130286069D01*
X186357855Y-130260156D01*
X186384006Y-130229735D01*
X186402176Y-130201525D01*
X186406352Y-130182245D01*
X186389955Y-130170373D01*
X186356957Y-130163474D01*
X186315843Y-130161960D01*
X186275059Y-130166136D01*
X186243050Y-130176311D01*
X186224293Y-130181722D01*
X186203263Y-130171269D01*
X186194895Y-130141433D01*
X186194903Y-130140685D01*
X186205731Y-130124223D01*
X186228412Y-130116743D01*
X186250285Y-130122560D01*
X186251945Y-130123635D01*
X186274045Y-130124061D01*
X186306608Y-130113490D01*
X186341210Y-130096072D01*
X186369425Y-130075955D01*
X186382828Y-130057289D01*
X186377882Y-130033800D01*
X186359304Y-130001604D01*
X186333193Y-129969034D01*
X186305777Y-129943822D01*
X186283283Y-129933700D01*
X186270657Y-129932436D01*
X186251387Y-129918223D01*
X186253168Y-129890396D01*
X186258653Y-129878898D01*
X186268243Y-129872548D01*
X186284994Y-129876692D01*
X186313450Y-129892694D01*
X186358155Y-129921918D01*
X186408689Y-129952678D01*
X186446268Y-129966956D01*
X186470299Y-129962353D01*
X186483054Y-129938386D01*
X186486800Y-129894571D01*
X186486078Y-129874532D01*
X186480510Y-129834125D01*
X186471244Y-129806844D01*
X186462289Y-129785419D01*
X186470390Y-129767230D01*
X186474426Y-129763704D01*
X186497361Y-129758151D01*
X186516739Y-129771887D01*
X186524900Y-129800268D01*
X186528489Y-129820730D01*
X186542676Y-129861187D01*
X186564154Y-129909484D01*
X186589151Y-129957920D01*
X186613898Y-129998792D01*
X186634624Y-130024398D01*
X186646444Y-130031356D01*
X186677868Y-130044549D01*
X186721363Y-130060200D01*
X186770942Y-130076447D01*
X186820616Y-130091427D01*
X186864396Y-130103278D01*
X186896296Y-130110137D01*
X186910326Y-130110143D01*
X186918252Y-130099744D01*
X186939213Y-130072224D01*
X186970675Y-130030909D01*
X187010145Y-129979074D01*
X187055128Y-129919995D01*
X187196102Y-129734841D01*
X187177342Y-129591171D01*
X187176384Y-129583805D01*
X187168835Y-129521743D01*
X187165222Y-129478171D01*
X187165574Y-129447074D01*
X187169920Y-129422436D01*
X187178292Y-129398243D01*
X187180730Y-129391809D01*
X187193003Y-129346612D01*
X187198000Y-129304792D01*
X187198008Y-129303160D01*
X187202487Y-129272147D01*
X187213875Y-129260595D01*
X187214388Y-129260526D01*
X187225261Y-129247691D01*
X187242259Y-129215842D01*
X187263156Y-129169544D01*
X187285722Y-129113363D01*
X187299394Y-129078368D01*
X187330434Y-129008878D01*
X187358682Y-128964032D01*
X187385765Y-128943795D01*
X187413310Y-128948130D01*
D13*
X206725000Y-62175000D03*
X130725000Y-57675000D03*
X206725000Y-100675000D03*
X130725000Y-98175000D03*
X103725000Y-119675000D03*
M02*
